<?xml version="1.0" encoding="UTF-8" standalone="no"?>
<!DOCTYPE svg PUBLIC "-//W3C//DTD SVG 1.1//EN" "http://www.w3.org/Graphics/SVG/1.1/DTD/svg11.dtd">
<svg width="100%" height="100%" viewBox="0 0 2372 2558" version="1.1" xmlns="http://www.w3.org/2000/svg" xmlns:xlink="http://www.w3.org/1999/xlink" xml:space="preserve" xmlns:serif="http://www.serif.com/" style="fill-rule:evenodd;clip-rule:evenodd;stroke-linejoin:round;stroke-miterlimit:2;">
    <g transform="matrix(1,0,0,1,-15396.3,-6146.32)">
        <g transform="matrix(8.33333,0,0,8.33333,16531.3,6412.59)">
            <path d="M0,58.748L-10.158,28.315L-15.97,25.412L-24.116,1.007L-21.098,0L-13.369,23.154L-7.557,26.057L3.018,57.741L0,58.748Z" style="fill:white;fill-rule:nonzero;"/>
        </g>
        <g transform="matrix(8.33333,0,0,8.33333,15570.1,6996.77)">
            <path d="M0,38.048L-8.408,12.857L-14.22,9.954L-17.207,1.007L-14.188,0L-11.619,7.697L-5.808,10.6L3.018,37.041L0,38.048Z" style="fill:white;fill-rule:nonzero;"/>
        </g>
        <g transform="matrix(8.33333,0,0,8.33333,16668,6583.27)">
            <path d="M0,43.388L-8.826,16.947L-5.923,11.135L-9.303,1.008L-6.285,0L-2.487,11.378L-5.39,17.19L3.018,42.381L0,43.388Z" style="fill:white;fill-rule:nonzero;"/>
        </g>
        <g transform="matrix(-2.63853,-7.90459,-7.90459,2.63853,16123.2,6446.39)">
            <rect x="-22.915" y="16.508" width="37.1" height="3.183" style="fill:white;"/>
        </g>
        <g transform="matrix(-2.63835,-7.90465,-7.90465,2.63835,15921.8,6265.91)">
            <rect x="-24.873" y="17.92" width="40.075" height="3.182" style="fill:white;"/>
        </g>
        <g transform="matrix(8.33333,0,0,8.33333,15777.2,6552.09)">
            <path d="M0,45.879L-7.093,24.629L-18.288,14.345L-22.741,1.007L-19.723,0L-15.531,12.558L-4.335,22.842L3.018,44.872L0,45.879Z" style="fill:white;fill-rule:nonzero;"/>
        </g>
        <g transform="matrix(-2.63851,-7.9046,-7.9046,2.63851,16886.2,6773.1)">
            <rect x="-5.518" y="3.976" width="10.675" height="3.182" style="fill:white;"/>
        </g>
        <g transform="matrix(-2.63836,-7.90465,-7.90465,2.63836,15578.7,7250.93)">
            <rect x="-13.237" y="9.537" width="22.4" height="3.182" style="fill:white;"/>
        </g>
        <g transform="matrix(8.33333,0,0,8.33333,16338.6,6412.82)">
            <path d="M0,-2.319C-0.131,-2.319 -0.263,-2.298 -0.391,-2.255C-0.703,-2.151 -0.956,-1.932 -1.103,-1.637C-1.249,-1.343 -1.273,-1.01 -1.169,-0.698C-1.065,-0.386 -0.846,-0.133 -0.551,0.014C-0.257,0.161 0.077,0.184 0.388,0.08C0.7,-0.024 0.953,-0.243 1.1,-0.537C1.247,-0.831 1.271,-1.165 1.167,-1.477C1.062,-1.789 0.843,-2.042 0.549,-2.189C0.375,-2.275 0.188,-2.319 0,-2.319M-0.005,3.328C-0.681,3.328 -1.351,3.171 -1.973,2.86C-3.027,2.334 -3.814,1.428 -4.187,0.31C-4.56,-0.808 -4.476,-2.005 -3.949,-3.059C-3.422,-4.114 -2.516,-4.9 -1.398,-5.273C-0.28,-5.647 0.916,-5.561 1.971,-5.035C3.025,-4.508 3.811,-3.602 4.185,-2.484C4.558,-1.366 4.473,-0.17 3.946,0.884C3.42,1.939 2.514,2.725 1.396,3.098C0.937,3.252 0.465,3.328 -0.005,3.328" style="fill:white;fill-rule:nonzero;"/>
        </g>
        <g transform="matrix(8.33333,0,0,8.33333,15935.8,6370.32)">
            <path d="M0,-2.318C-0.129,-2.318 -0.26,-2.298 -0.389,-2.255C-0.701,-2.15 -0.953,-1.931 -1.101,-1.637C-1.247,-1.343 -1.271,-1.009 -1.167,-0.697C-1.063,-0.385 -0.843,-0.133 -0.549,0.014C-0.255,0.161 0.079,0.185 0.391,0.081C0.703,-0.023 0.955,-0.243 1.102,-0.537C1.249,-0.831 1.273,-1.165 1.168,-1.477C0.997,-1.992 0.515,-2.318 0,-2.318M-0.003,3.328C-0.679,3.328 -1.349,3.171 -1.971,2.861C-3.025,2.334 -3.812,1.428 -4.185,0.31C-4.558,-0.808 -4.473,-2.004 -3.947,-3.059C-3.42,-4.113 -2.514,-4.899 -1.396,-5.273C-0.278,-5.646 0.918,-5.561 1.973,-5.035C3.027,-4.508 3.813,-3.602 4.186,-2.484C4.56,-1.366 4.475,-0.17 3.949,0.885C3.422,1.939 2.516,2.726 1.398,3.099C0.939,3.252 0.467,3.328 -0.003,3.328" style="fill:white;fill-rule:nonzero;"/>
        </g>
        <g transform="matrix(8.33333,0,0,8.33333,16853.6,6846.7)">
            <path d="M0,0.925C0.215,1.569 0.914,1.918 1.557,1.703C1.87,1.599 2.122,1.379 2.269,1.085C2.416,0.791 2.44,0.457 2.336,0.145C2.231,-0.167 2.012,-0.419 1.718,-0.566C1.424,-0.713 1.09,-0.737 0.778,-0.632C0.134,-0.418 -0.215,0.281 0,0.925M1.171,4.948C-0.676,4.948 -2.402,3.779 -3.018,1.932C-3.788,-0.376 -2.537,-2.88 -0.23,-3.651C0.889,-4.023 2.085,-3.939 3.14,-3.413C4.194,-2.886 4.98,-1.98 5.354,-0.862C5.727,0.256 5.642,1.452 5.115,2.507C4.589,3.561 3.683,4.348 2.565,4.721C2.103,4.875 1.633,4.948 1.171,4.948" style="fill:white;fill-rule:nonzero;"/>
        </g>
        <g transform="matrix(8.33333,0,0,8.33333,16815.2,6728.43)">
            <path d="M0,1.323C0.215,1.967 0.914,2.316 1.558,2.101C2.201,1.886 2.55,1.187 2.335,0.543C2.12,-0.1 1.422,-0.449 0.778,-0.235C0.466,-0.13 0.213,0.089 0.066,0.383C-0.08,0.677 -0.104,1.011 0,1.323M1.171,5.346C-0.676,5.346 -2.402,4.177 -3.018,2.33C-3.391,1.212 -3.307,0.016 -2.78,-1.039C-2.253,-2.093 -1.347,-2.879 -0.229,-3.253C2.079,-4.023 4.583,-2.772 5.353,-0.464C6.124,1.844 4.873,4.349 2.565,5.119C2.103,5.273 1.633,5.346 1.171,5.346" style="fill:white;fill-rule:nonzero;"/>
        </g>
        <g transform="matrix(8.33333,0,0,8.33333,15713,6178.65)">
            <path d="M0,0.926C0.215,1.57 0.915,1.919 1.558,1.704C2.202,1.489 2.551,0.79 2.336,0.146C2.231,-0.166 2.012,-0.418 1.718,-0.565C1.424,-0.712 1.09,-0.736 0.778,-0.631C0.134,-0.417 -0.215,0.282 0,0.926ZM1.172,4.949C-0.676,4.949 -2.402,3.779 -3.018,1.933C-3.788,-0.375 -2.537,-2.879 -0.229,-3.649C0.889,-4.023 2.085,-3.938 3.14,-3.412C4.194,-2.885 4.981,-1.979 5.354,-0.861C6.124,1.447 4.873,3.952 2.565,4.722C2.104,4.876 1.634,4.949 1.172,4.949" style="fill:white;fill-rule:nonzero;"/>
        </g>
        <g transform="matrix(8.33333,0,0,8.33333,15828.4,6521)">
            <path d="M0,1.322C0.215,1.966 0.914,2.315 1.558,2.1C2.202,1.885 2.551,1.186 2.336,0.543C2.121,-0.101 1.422,-0.451 0.778,-0.235C0.134,-0.021 -0.215,0.678 0,1.322M1.171,5.345C-0.676,5.345 -2.402,4.176 -3.018,2.33C-3.788,0.021 -2.537,-2.483 -0.229,-3.254C2.079,-4.023 4.583,-2.773 5.354,-0.465C6.124,1.843 4.873,4.348 2.565,5.118C2.103,5.272 1.633,5.345 1.171,5.345" style="fill:white;fill-rule:nonzero;"/>
        </g>
        <g transform="matrix(8.33333,0,0,8.33333,15583.2,6531.18)">
            <path d="M0,1.322C0.215,1.966 0.914,2.315 1.557,2.1C2.201,1.885 2.55,1.186 2.335,0.543C2.231,0.231 2.012,-0.022 1.718,-0.169C1.423,-0.316 1.09,-0.34 0.778,-0.236C0.466,-0.131 0.213,0.088 0.066,0.382C-0.081,0.676 -0.104,1.01 0,1.322M1.171,5.345C-0.676,5.345 -2.402,4.176 -3.018,2.33C-3.391,1.211 -3.307,0.015 -2.78,-1.04C-2.253,-2.094 -1.348,-2.88 -0.23,-3.254C2.079,-4.023 4.583,-2.773 5.353,-0.465C6.124,1.843 4.873,4.348 2.565,5.118C2.103,5.272 1.633,5.345 1.171,5.345" style="fill:white;fill-rule:nonzero;"/>
        </g>
        <g transform="matrix(8.33333,0,0,8.33333,15792.7,6948.02)">
            <path d="M0,-2.32C-0.131,-2.32 -0.263,-2.299 -0.391,-2.256C-1.035,-2.041 -1.384,-1.342 -1.169,-0.699C-1.065,-0.387 -0.845,-0.134 -0.551,0.013C-0.257,0.16 0.077,0.183 0.389,0.079C0.701,-0.025 0.953,-0.244 1.1,-0.538C1.247,-0.832 1.271,-1.166 1.167,-1.478C1.062,-1.79 0.843,-2.043 0.549,-2.19C0.376,-2.276 0.188,-2.32 0,-2.32M-0.005,3.327C-0.68,3.327 -1.351,3.17 -1.973,2.859C-3.027,2.333 -3.814,1.427 -4.187,0.309C-4.56,-0.809 -4.475,-2.006 -3.949,-3.06C-3.422,-4.115 -2.516,-4.901 -1.398,-5.274C-0.28,-5.647 0.916,-5.563 1.971,-5.036C3.025,-4.509 3.811,-3.603 4.185,-2.485C4.558,-1.367 4.473,-0.171 3.947,0.883C3.42,1.938 2.514,2.724 1.396,3.097C0.937,3.251 0.465,3.327 -0.005,3.327" style="fill:white;fill-rule:nonzero;"/>
        </g>
        <g transform="matrix(8.33333,0,0,8.33333,15459.4,7195.41)">
            <path d="M0,-2.32C-0.131,-2.32 -0.263,-2.299 -0.391,-2.256C-0.703,-2.152 -0.956,-1.932 -1.103,-1.638C-1.249,-1.344 -1.273,-1.01 -1.169,-0.698C-1.065,-0.387 -0.846,-0.134 -0.551,0.013C-0.257,0.16 0.077,0.183 0.388,0.079C0.7,-0.025 0.953,-0.244 1.1,-0.538C1.247,-0.832 1.271,-1.166 1.167,-1.478C1.062,-1.79 0.843,-2.043 0.549,-2.19C0.375,-2.276 0.188,-2.32 0,-2.32M-0.005,3.327C-0.681,3.327 -1.351,3.17 -1.973,2.86C-3.027,2.333 -3.814,1.427 -4.187,0.309C-4.56,-0.809 -4.476,-2.005 -3.949,-3.06C-3.422,-4.115 -2.516,-4.901 -1.398,-5.274C-0.28,-5.647 0.916,-5.563 1.971,-5.036C3.025,-4.509 3.811,-3.604 4.184,-2.485C4.558,-1.367 4.473,-0.171 3.946,0.883C3.42,1.938 2.514,2.724 1.396,3.097C0.937,3.251 0.465,3.327 -0.005,3.327" style="fill:white;fill-rule:nonzero;"/>
        </g>
        <g transform="matrix(8.33333,0,0,8.33333,16035.5,6684.69)">
            <path d="M0,0.926C0.215,1.57 0.914,1.919 1.557,1.704C1.869,1.6 2.122,1.38 2.269,1.086C2.416,0.792 2.439,0.458 2.335,0.147C2.231,-0.166 2.012,-0.418 1.718,-0.565C1.424,-0.712 1.09,-0.736 0.778,-0.631C0.466,-0.527 0.213,-0.308 0.066,-0.014C-0.081,0.28 -0.104,0.614 0,0.926M1.171,4.949C-0.676,4.949 -2.402,3.78 -3.018,1.933C-3.391,0.815 -3.307,-0.381 -2.78,-1.436C-2.253,-2.49 -1.348,-3.276 -0.23,-3.65C0.889,-4.023 2.085,-3.938 3.14,-3.412C4.194,-2.885 4.98,-1.979 5.353,-0.861C5.726,0.257 5.642,1.453 5.115,2.508C4.589,3.562 3.683,4.349 2.565,4.722C2.103,4.876 1.633,4.949 1.171,4.949" style="fill:white;fill-rule:nonzero;"/>
        </g>
        <g transform="matrix(8.33333,0,0,8.33333,16595.6,6574.24)">
            <path d="M0,-2.32C-0.131,-2.32 -0.263,-2.299 -0.391,-2.256C-0.703,-2.152 -0.956,-1.933 -1.102,-1.638C-1.249,-1.344 -1.273,-1.011 -1.169,-0.699C-1.065,-0.387 -0.846,-0.134 -0.551,0.013C-0.257,0.16 0.077,0.184 0.389,0.079C1.033,-0.135 1.382,-0.834 1.167,-1.478C1.062,-1.79 0.843,-2.043 0.549,-2.19C0.376,-2.276 0.188,-2.32 0,-2.32M-0.005,3.327C-0.681,3.327 -1.351,3.17 -1.973,2.859C-3.027,2.333 -3.814,1.427 -4.187,0.309C-4.957,-1.999 -3.706,-4.504 -1.398,-5.274C-0.28,-5.647 0.916,-5.563 1.971,-5.036C3.025,-4.509 3.811,-3.603 4.185,-2.485C4.955,-0.177 3.704,2.327 1.396,3.097C0.937,3.25 0.465,3.327 -0.005,3.327" style="fill:white;fill-rule:nonzero;"/>
        </g>
        <g transform="matrix(8.33333,0,0,8.33333,15423.3,6974.55)">
            <path d="M0,1.322C0.215,1.966 0.914,2.314 1.557,2.1C1.869,1.996 2.122,1.777 2.269,1.482C2.416,1.188 2.439,0.854 2.335,0.542C2.231,0.231 2.012,-0.022 1.718,-0.169C1.424,-0.316 1.09,-0.34 0.778,-0.236C0.466,-0.131 0.213,0.088 0.066,0.382C-0.081,0.676 -0.104,1.01 0,1.322M1.171,5.345C-0.676,5.345 -2.402,4.176 -3.018,2.329C-3.391,1.211 -3.307,0.015 -2.78,-1.04C-2.253,-2.094 -1.348,-2.88 -0.23,-3.254C2.079,-4.023 4.583,-2.773 5.353,-0.465C5.726,0.653 5.642,1.85 5.115,2.904C4.589,3.959 3.683,4.745 2.565,5.118C2.103,5.272 1.633,5.345 1.171,5.345" style="fill:white;fill-rule:nonzero;"/>
        </g>
        <g transform="matrix(0,-8.33333,-8.33333,0,16160.7,6357.54)">
            <path d="M-2.724,-2.724C-4.229,-2.724 -5.448,-1.504 -5.448,0C-5.448,1.505 -4.229,2.724 -2.724,2.724C-1.219,2.724 0,1.505 0,0C0,-1.504 -1.219,-2.724 -2.724,-2.724" style="fill:white;fill-rule:nonzero;"/>
        </g>
        <g transform="matrix(0,-8.33333,-8.33333,0,16242.8,6527.91)">
            <path d="M-5.577,-5.577C-8.666,-5.577 -11.17,-3.08 -11.17,0C-11.17,3.08 -8.666,5.577 -5.577,5.577C-2.488,5.577 0.016,3.08 0.016,0C0.016,-3.08 -2.488,-5.577 -5.577,-5.577" style="fill:white;fill-rule:nonzero;"/>
        </g>
        <g transform="matrix(0,-8.33333,-8.33333,0,16326.7,6632.02)">
            <path d="M-1.957,-1.957C-3.039,-1.957 -3.915,-1.08 -3.915,0.001C-3.915,1.081 -3.039,1.957 -1.957,1.957C-0.876,1.957 0.001,1.081 0.001,0.001C0.001,-1.08 -0.876,-1.957 -1.957,-1.957" style="fill:white;fill-rule:nonzero;"/>
        </g>
        <g transform="matrix(0,-8.33333,-8.33333,0,15886.8,6630.01)">
            <path d="M-4.313,-4.313C-6.694,-4.313 -8.625,-2.382 -8.625,0C-8.625,2.381 -6.694,4.313 -4.313,4.313C-1.931,4.313 0,2.381 0,0C0,-2.382 -1.931,-4.313 -4.313,-4.313" style="fill:white;fill-rule:nonzero;"/>
        </g>
        <g transform="matrix(0,-8.33333,-8.33333,0,15778.6,6606.38)">
            <path d="M-2.305,-2.305C-3.578,-2.305 -4.61,-1.273 -4.61,0C-4.61,1.273 -3.578,2.305 -2.305,2.305C-1.032,2.305 0,1.273 0,0C0,-1.273 -1.032,-2.305 -2.305,-2.305" style="fill:white;fill-rule:nonzero;"/>
        </g>
        <g transform="matrix(8.33333,0,0,8.33333,16774.6,7514.14)">
            <path d="M0,-39.747C-35.123,-16.118 -37.876,-7.893 -82.18,-12.609C-87.313,-12.319 -104.201,-10.667 -107.389,-7.37C-104.655,-6.405 -100.545,-6.981 -97.54,-6.474C-88.479,-5.123 -80.235,-0.077 -70.856,-0.873C-51.803,0 -32.846,-6.893 -13.959,-1.891C-10.787,-13.616 1.935,-28.741 0,-39.747" style="fill:white;fill-rule:nonzero;"/>
        </g>
        <g transform="matrix(8.33333,0,0,8.33333,16393.4,7791.96)">
            <path d="M0,-28.192C-2.851,-27.521 -5.637,-27.948 -8.428,-28.609C-11.244,-28.95 -14.006,-27.863 -16.757,-27.171C-26.545,-24.459 -36.468,-27.852 -44.544,-33.404C-46.529,-34.303 -49.994,-35.293 -52.121,-34.709C-50.44,-29.909 -47.053,-25.884 -45.679,-20.819C-44.45,-16.289 -44.222,-11.291 -41.468,-7.49C-36.514,-1.629 -29.397,2.239 -22.21,4.698C-20.485,5.257 -18.636,5.773 -17.402,7.101C-13.096,4.369 -8.346,2.11 -4.565,-1.341C-3.244,-2.738 -2.339,-4.476 -1.107,-5.953C0.882,-8.338 3.671,-9.98 5.536,-12.464C8.364,-16.232 8.824,-21.611 12.367,-24.717C12.418,-19.233 12.471,-13.749 12.522,-8.265C19.957,-13.985 25.988,-21.515 29.948,-30.018C19.938,-30.286 9.904,-29.675 0,-28.192" style="fill:white;fill-rule:nonzero;"/>
        </g>
        <g transform="matrix(8.33333,0,0,8.33333,17020,7591.48)">
            <path d="M0,-70.953C-3.209,-70.843 -6.446,-70.854 -9.687,-70.886C-10.665,-72.288 -12.193,-73.642 -12.807,-75.042C-12.995,-75.47 -13.268,-75.987 -13.663,-75.915C-14.149,-75.826 -14.193,-75.001 -14.107,-74.413C-13.936,-73.25 -13.766,-72.087 -13.595,-70.924C-13.986,-70.929 -14.378,-70.933 -14.77,-70.937C-16.101,-73.146 -19.324,-75.23 -20.479,-77.402C-20.774,-77.959 -21.206,-78.632 -21.829,-78.538C-22.597,-78.422 -22.666,-77.348 -22.529,-76.583C-22.193,-74.694 -21.857,-72.805 -21.521,-70.916C-24.42,-70.866 -27.305,-70.747 -30.157,-70.472C-32.356,-66.637 -36.209,-66.5 -38.459,-63.303C-8.73,-60.891 -26.179,-65.276 -25.826,-40.662C-24.986,-32.437 -29.074,-33.857 -29.25,-28.778C-29.421,-25.927 -28.36,-23.152 -28.365,-20.349C-31.373,-13.83 -35.806,-7.906 -39.323,-1.612C-40.671,0.621 -43.565,5.032 -42.123,7.679C-39.709,6.51 -38.013,3.749 -36.115,1.908C-28.782,-6.095 -15.076,-5.756 -8.16,-14.097C-6.955,-18.253 -6.346,-23.034 -6.792,-27.343C-7.85,-29.443 -7.878,-31.642 -6.631,-33.711C1.298,-46.997 0.546,-56.105 0,-70.953" style="fill:white;fill-rule:nonzero;"/>
        </g>
        <g transform="matrix(8.33333,0,0,8.33333,15875.9,7306.67)">
            <path d="M0,-17.792C3.291,-11.169 8.076,-4.722 13.869,-0.076C22.036,3.977 32.049,4.794 41.037,3.871C51.1,0.769 57.256,-8.311 68.792,-2.715C70.945,-1.919 75.832,1.064 78.003,0.284C77.01,-2.292 74.759,-4.81 73.22,-7.13C69.666,-14.552 41.009,-8.413 33.448,-14.042C24.458,-22.586 10.976,-21.81 0,-17.792" style="fill:white;fill-rule:nonzero;"/>
        </g>
        <g transform="matrix(8.33333,0,0,8.33333,16499.9,7062.51)">
            <path d="M0,-7.848C5.219,2.07 -1.406,16.069 6.672,24.861C11.328,19.023 17.374,14.007 21.171,7.597C21.981,5.19 21.069,2.589 20.776,0.066C20.168,-5.163 22.481,-10.636 26.653,-13.846C24.083,-19.837 19.721,-25.037 13.442,-25.98C11.904,-27.838 9.413,-29.626 8.428,-31.479C8.132,-32.036 7.701,-32.709 7.078,-32.615C6.31,-32.499 6.241,-31.425 6.377,-30.66C6.653,-29.109 6.929,-27.558 7.205,-26.007C5.409,-25.932 3.229,-25.799 1.03,-25.559C-0.514,-27.28 -2.736,-28.948 -3.653,-30.673C-3.948,-31.229 -4.38,-31.902 -5.003,-31.808C-5.771,-31.693 -5.84,-30.618 -5.704,-29.854L-4.768,-24.594C-7.104,-24.014 -8.96,-23.212 -9.658,-22.096C-10.07,-19.952 -6.55,-16.292 -5.32,-14.835C-3.433,-12.598 -1.371,-10.461 0,-7.848" style="fill:white;fill-rule:nonzero;"/>
        </g>
        <g transform="matrix(8.33333,0,0,8.33333,16188.1,7041.48)">
            <path d="M0,1.322C-0.409,1.918 -4.339,8.774 -3.834,8.989C5.32,12.881 15.457,14.44 25.359,13.477C31.852,13.141 28.556,-2.444 27.192,-6.488C26.159,-9.524 26.176,-13.118 22.222,-12.797C13.306,-11.825 5.055,-5.885 0,1.322" style="fill:white;fill-rule:nonzero;"/>
        </g>
        <g transform="matrix(-6.46852,-5.25383,-5.25383,6.46852,16083,7000.67)">
            <path d="M-11.408,-22.517C-7.371,-20.358 4.673,-13.023 0.111,-7.696C-2.759,-3.82 -7.064,2.906 -11.408,4.842C-11.232,2.129 -8.966,-0.506 -8.19,-3.146C-7.155,-9.41 -6.021,-17.938 -11.408,-22.517" style="fill:white;fill-rule:nonzero;"/>
        </g>
        <g transform="matrix(8.33333,0,0,8.33333,16032.5,6859.81)">
            <path d="M0,8.729C9.752,4.118 16.268,-2.329 28.053,-0.208C30.231,0.072 32.381,0.527 34.509,1.067C35.395,1.291 39.408,2.988 40.068,2.529C41.322,1.657 35.707,-6.563 34.789,-6.563C32.556,-6.575 30.503,-7.702 28.538,-8.761C24.383,-10.999 20.138,-13.069 15.815,-14.962C14.188,-15.916 12.401,-15.559 11.276,-14.046C-10.357,12.499 -15.414,-4.307 -2.301,24.645C-2.427,19.398 -2.499,13.424 0,8.729" style="fill:white;fill-rule:nonzero;"/>
        </g>
        <g transform="matrix(8.33333,0,0,8.33333,15610.4,7136.29)">
            <path d="M0,-17.409C0.002,-17.409 0.004,-17.409 0.006,-17.408C-0.068,-16.876 -0.046,-16.368 0.097,-15.893C3.006,-10.337 -0.097,3.852 3.17,5.787C9.57,11.537 18.366,13.041 25.355,17.661C28.799,20.169 32.105,25.367 36.409,26.325C34.132,21.603 30.623,17.928 29.197,12.634C28.363,8.329 27.35,4.144 25.884,0.14C26.033,-0.482 26.726,-0.781 27.331,-0.988C31.834,-2.529 36.338,-4.07 40.841,-5.611C38.885,-13.764 35.143,-21.724 34.559,-30.111C36.347,-38.855 30.651,-38.31 25.983,-43.734C25.284,-41.959 24.363,-40.379 23.291,-38.94C21.268,-39.611 19.198,-40.259 17.997,-41.174C17.44,-41.598 16.665,-42.083 15.827,-41.756C14.795,-41.352 14.651,-39.592 14.721,-38.806C14.974,-35.959 15.299,-32.204 13.532,-31.424C11.588,-30.314 7.906,-27.683 4.867,-24.718C3.256,-26.151 1.649,-27.576 0.819,-29.032C0.41,-29.749 -0.187,-30.617 -1.049,-30.496C-2.111,-30.347 -2.206,-28.962 -2.018,-27.976C-1.345,-24.454 -0.673,-20.931 0,-17.409" style="fill:white;fill-rule:nonzero;"/>
        </g>
        <g transform="matrix(8.33333,0,0,8.33333,15879.7,7525.1)">
            <path d="M0,-2.637C-2.975,-4.737 -6.814,-10.179 -6.65,-13.837C-6.554,-15.976 -1.05,-17.687 -1.05,-17.687C-5.217,-25.089 -26.547,-23.749 -32.375,-30.463C-33.323,-31.338 -34.542,-32.026 -35.644,-32.536C-35.646,-32.538 -35.647,-32.539 -35.648,-32.541C-36.148,-33.077 -36.815,-34.39 -36.815,-34.39C-36.815,-34.39 -38.301,-36.334 -39.36,-36.804C-40.419,-37.275 -40.385,-35.035 -40.22,-34.541C-40.207,-34.503 -40.196,-34.439 -40.184,-34.383C-40.024,-33.416 -40.853,-32.218 -41.111,-31.932C-41.204,-31.828 -41.48,-31.785 -41.797,-31.772C-42.557,-31.74 -43.309,-31.948 -43.959,-32.342L-46.504,-33.886L-46.54,-33.647C-47.143,-34.236 -47.648,-34.417 -48.46,-33.961C-49.513,-33.369 -49.307,-31.779 -49.095,-30.924C-48.577,-28.845 -48.059,-26.766 -47.541,-24.687L-51.45,-20.487C-51.45,-20.487 -48.825,7.513 -46.375,11.713C-43.925,15.913 -39.9,17.663 -37.975,19.063C-35.303,20.231 -18.872,34.242 -15.4,34.638C-15.4,34.638 -9.975,28.513 -4.9,27.113C0.175,25.713 5.425,21.688 8.575,21.338C11.725,20.988 3.531,-0.144 0,-2.637" style="fill:white;fill-rule:nonzero;"/>
        </g>
        <g transform="matrix(6.68823,0,0,6.68823,16391.8,8371.12)">
            <path d="M0,18.397C-0.307,19.93 -1.897,26.306 -2.437,27.957L-31.634,27.957L-31.634,26.047C-26.358,25.569 -25.993,25.201 -25.993,20.408L-25.993,-1.835C-25.993,-6.806 -26.662,-7.131 -30.716,-7.496L-30.716,-9.445L-12.398,-9.445C-6.579,-9.445 -4.484,-9.502 -3.72,-9.56C-3.662,-8.382 -3.393,-3.805 -3.163,-0.419L-5.227,-0.131C-5.745,-2.088 -6.581,-4.044 -7.439,-5.14C-8.434,-6.553 -9.383,-6.918 -12.499,-6.918L-16.844,-6.918C-18.889,-6.918 -19.08,-6.783 -19.08,-4.927L-19.08,7.34L-13.179,7.34C-9.574,7.34 -9.098,6.477 -8.297,2.452L-6.214,2.452L-6.214,14.941L-8.297,14.941C-9.155,10.723 -9.616,10.074 -13.237,10.074L-19.08,10.074L-19.08,20.514C-19.08,24.505 -18.562,25.411 -15.235,25.468L-10.707,25.468C-7.384,25.468 -6.622,25.026 -5.356,23.492C-4.038,21.984 -2.867,19.775 -1.987,17.899L0,18.397Z" style="fill:white;fill-rule:nonzero;"/>
        </g>
        <g transform="matrix(6.68823,0,0,6.68823,16857.3,8508.04)">
            <path d="M0,-22.985C-1.985,-22.985 -3.758,-24.685 -3.758,-26.707C-3.758,-28.886 -1.985,-30.471 0.058,-30.471C2.119,-30.471 3.78,-28.886 3.78,-26.707C3.78,-24.685 2.119,-22.985 0,-22.985M-6.469,7.486L-6.469,5.65C-3.18,5.268 -2.815,5.018 -2.815,0.992L-2.815,-10.449C-2.815,-14.204 -3.062,-14.434 -6.028,-14.86L-6.028,-16.578C-2.626,-17.02 0.677,-17.769 3.602,-18.73L3.602,0.992C3.602,4.905 3.892,5.268 7.371,5.65L7.371,7.486L-6.469,7.486Z" style="fill:white;fill-rule:nonzero;"/>
        </g>
        <g transform="matrix(6.68823,9.38199e-05,9.38199e-05,-6.68823,15873,8703.76)">
            <path d="M0,0C-19.685,-0 -35.644,15.958 -35.643,35.644C-35.643,55.33 -19.685,71.288 0,71.288C19.685,71.288 35.644,55.33 35.644,35.644C35.644,15.959 19.686,0 0,0" style="fill:white;fill-rule:nonzero;"/>
        </g>
        <g transform="matrix(6.68823,0,0,6.68823,15949.2,8491.49)">
            <path d="M0,-13.661L5.123,-13.661L5.123,9.538L0,9.538L0,-13.661ZM2.416,-23.199C4.29,-23.199 5.623,-21.825 5.623,-19.95C5.623,-18.243 4.29,-16.91 2.416,-16.91C0.708,-16.91 -0.666,-18.243 -0.666,-19.95C-0.666,-21.825 0.708,-23.199 2.416,-23.199" style="fill-rule:nonzero;"/>
        </g>
        <g transform="matrix(6.68823,0,0,6.68823,15937.1,8016.71)">
            <path d="M0,1.45C0.691,1.795 1.982,2.086 3.454,2.086C6.524,2.086 11,0.391 11,-7.083C11,-13.487 7.267,-15.758 3.144,-15.758C1.776,-15.758 0.905,-15.47 0.559,-15.142C0.134,-14.776 0,-14.161 0,-13.056L0,1.45ZM3.876,-17.976C8.262,-17.976 11.652,-17.191 14.012,-15.576C16.666,-13.758 18.258,-11.016 18.258,-7.106C18.258,1.257 11.14,4.727 5.224,4.765C4.63,4.765 3.942,4.707 3.558,4.649L0,3.726L0,11.954C0,16.788 0.403,16.977 5.51,17.478L5.51,19.426L-11.943,19.426L-11.943,17.478C-7.406,16.96 -6.951,16.727 -6.951,11.914L-6.951,-10.369C-6.951,-15.303 -7.546,-15.68 -11.943,-16.028L-11.943,-17.976L3.876,-17.976Z" style="fill:white;fill-rule:nonzero;"/>
        </g>
        <g transform="matrix(6.68823,0,0,6.68823,16160.8,8136.67)">
            <path d="M0,-22.467C-2.837,-22.467 -5.515,-19.596 -5.515,-12.66C-5.515,-5.464 -2.853,-0.058 1.154,-0.058C3.824,-0.058 6.403,-1.937 6.403,-10.156C6.403,-17.711 4.092,-22.467 0,-22.467M0.691,-24.648C8.481,-24.648 13.683,-18.77 13.683,-11.684C13.683,-2.4 6.929,2.181 0.54,2.181C-7.886,2.181 -12.795,-4.319 -12.795,-10.95C-12.795,-19.955 -5.523,-24.648 0.691,-24.648" style="fill:white;fill-rule:nonzero;"/>
        </g>
        <g transform="matrix(6.68823,0,0,6.68823,16373.4,7970.91)">
            <path d="M0,26.273L-14.506,26.273L-14.506,24.437C-11.255,24.092 -10.948,23.805 -10.948,20.252L-10.948,7.872C-10.948,4.672 -11.178,4.425 -14.105,3.91L-14.105,2.247C-10.797,1.824 -7.798,1.133 -4.531,0L-4.531,6.254C-2.143,2.627 0.049,0.135 2.588,0.135C4.717,0.135 6.187,1.534 6.187,3.346C6.187,5.642 4.556,7.132 3.596,7.632C2.87,7.978 2.335,7.771 1.913,7.406C0.976,6.58 0.247,5.78 -0.751,5.78C-1.735,5.78 -3.415,6.89 -4.531,9.339L-4.531,20.231C-4.531,23.805 -4.169,24.017 0,24.437L0,26.273Z" style="fill:white;fill-rule:nonzero;"/>
        </g>
        <g transform="matrix(6.68823,0,0,6.68823,16517.9,7919.96)">
            <path d="M0,33.908C-0.979,34.388 -1.9,34.582 -2.363,34.582C-6.532,34.582 -8.936,32.45 -8.936,27.435L-8.936,11.139L-12.718,11.139L-13.025,10.449L-11.395,8.444L-8.936,8.444L-8.936,3.648C-7.28,2.347 -4.865,0.627 -3.174,-0.674L-2.385,-0.335C-2.461,1.521 -2.557,4.672 -2.519,8.444L3.517,8.444C4.035,9.019 3.824,10.621 3.095,11.139L-2.519,11.139L-2.519,25.458C-2.519,30.007 -0.68,30.645 0.556,30.645C1.675,30.645 2.623,30.352 3.58,29.949L4.133,31.819L0,33.908Z" style="fill:white;fill-rule:nonzero;"/>
        </g>
        <g transform="matrix(6.68823,0,0,6.68823,16557.5,7874.43)">
            <path d="M0,40.698L0,38.862C3.421,38.405 3.657,38.117 3.657,34.432L3.657,7.768C3.657,4.594 3.33,4.249 0.096,3.677L0.096,1.956C3.766,1.573 7.631,0.802 10.071,0L10.071,34.432C10.071,38.23 10.304,38.48 13.746,38.862L13.746,40.698L0,40.698Z" style="fill:white;fill-rule:nonzero;"/>
        </g>
        <g transform="matrix(6.68823,0,0,6.68823,16763.2,8068.93)">
            <path d="M0,-2.213C-1.118,-1.617 -2.757,-0.821 -3.969,-0.208C-5.893,0.733 -7.028,1.789 -7.028,3.806C-7.028,6.967 -4.764,8.199 -3.297,8.199C-2.25,8.199 -1.003,7.839 0,6.876L0,-2.213ZM4.909,12.308C3.599,12.308 2.333,11.81 1.645,11.139C0.861,10.429 0.477,9.623 0.189,8.849C-2.037,10.328 -4.857,12.308 -6.192,12.308C-10.838,12.308 -13.735,8.613 -13.735,5.006C-13.735,2.036 -12.294,0.494 -9.204,-0.674C-5.77,-1.92 -1.305,-3.341 0,-4.451L0,-6.5C0,-9.874 -1.436,-11.785 -4.092,-11.785C-5.192,-11.785 -5.997,-11.264 -6.535,-10.574C-7.203,-9.693 -7.494,-8.502 -7.976,-6.796C-8.338,-5.464 -9.117,-5.061 -10.169,-5.061C-11.523,-5.061 -13.261,-6.362 -13.261,-7.892C-13.261,-8.848 -12.551,-9.575 -11.288,-10.455C-9.021,-12.001 -5.647,-13.83 -2.404,-14.521C-0.302,-14.521 1.593,-14.003 3.141,-12.892C5.455,-11.166 6.225,-8.911 6.225,-5.956L6.225,4.401C6.225,7.123 7.165,7.854 8.127,7.854C8.744,7.854 9.377,7.641 10.01,7.333L10.624,9.169L4.909,12.308Z" style="fill:white;fill-rule:nonzero;"/>
        </g>
        <g transform="matrix(6.68823,0,0,6.68823,16959.1,7970.66)">
            <path d="M0,26.311L0,24.475C2.741,24.13 2.974,23.84 2.974,19.889L2.974,10.171C2.974,6.105 1.159,4.336 -1.477,4.336C-3.276,4.336 -4.885,5.193 -6.518,6.506L-6.518,20.269C-6.518,23.94 -6.247,24.13 -3.528,24.475L-3.528,26.311L-16.553,26.311L-16.553,24.475C-13.28,23.998 -12.935,23.88 -12.935,20.12L-12.935,8.191C-12.935,4.638 -13.374,4.466 -16.106,3.948L-16.106,2.227C-12.951,1.805 -9.385,1.056 -6.444,0C-6.48,0.987 -6.518,2.941 -6.518,4.285C-5.367,3.479 -4.139,2.616 -2.755,1.75C-1.069,0.714 0.164,0.173 1.834,0.173C6.474,0.173 9.388,3.568 9.388,9.336L9.388,20.232C9.388,23.92 9.733,24.093 12.697,24.475L12.697,26.311L0,26.311Z" style="fill:white;fill-rule:nonzero;"/>
        </g>
        <g transform="matrix(6.68823,0,0,6.68823,17190.7,8018.23)">
            <path d="M0,-1.574C-0.874,-3.326 -2.714,-4.471 -4.92,-4.471C-7.047,-4.471 -11.263,-3.041 -11.263,5.282C-11.263,12.618 -7.023,15.703 -4.051,15.76C-2.653,15.76 -1.307,15.286 0,14.399L0,-1.574ZM10.452,17.722C9.13,17.953 4.18,18.643 0,19.926L0,16.448C-1.036,17.119 -2.494,17.961 -3.53,18.632C-5.233,19.656 -6.337,19.889 -6.992,19.889C-11.781,19.889 -18.442,15.547 -18.442,7.155C-18.442,-0.768 -11.46,-6.94 -2.864,-6.94C-2.322,-6.94 -1.022,-6.899 0,-6.606L0,-13.868C0,-17.138 -0.329,-17.366 -4.076,-17.786L-4.076,-19.544C-0.6,-19.947 3.837,-20.715 6.452,-21.5L6.452,12.15C6.452,15.216 6.82,15.545 8.985,15.772L10.452,15.924L10.452,17.722Z" style="fill:white;fill-rule:nonzero;"/>
        </g>
        <g transform="matrix(6.68823,0,0,6.68823,16523.3,8382.13)">
            <path d="M0,26.311L0,24.475C2.741,24.13 2.974,23.84 2.974,19.889L2.974,10.171C2.974,6.105 1.159,4.336 -1.477,4.336C-3.276,4.336 -4.885,5.193 -6.518,6.506L-6.518,20.269C-6.518,23.94 -6.247,24.13 -3.528,24.475L-3.528,26.311L-16.553,26.311L-16.553,24.475C-13.28,23.998 -12.935,23.88 -12.935,20.12L-12.935,8.191C-12.935,4.638 -13.374,4.466 -16.106,3.948L-16.106,2.227C-12.951,1.805 -9.385,1.056 -6.444,0C-6.48,0.987 -6.518,2.941 -6.518,4.285C-5.367,3.479 -4.139,2.616 -2.755,1.75C-1.069,0.714 0.164,0.173 1.834,0.173C6.474,0.173 9.388,3.568 9.388,9.336L9.388,20.232C9.388,23.92 9.733,24.093 12.697,24.475L12.697,26.311L0,26.311Z" style="fill:white;fill-rule:nonzero;"/>
        </g>
        <g transform="matrix(6.68823,0,0,6.68823,16702.1,8640)">
            <path d="M0,-36.377C-2.064,-36.377 -4.029,-34.168 -4.029,-29.846C-4.029,-25.712 -2.366,-22.51 0.502,-22.51C2.845,-22.55 4.454,-24.829 4.454,-29.153C4.454,-33.08 2.925,-36.377 0,-36.377M0.874,-11.255C-2.02,-11.255 -3.396,-10.91 -4.32,-10.122C-5.52,-9.135 -6.335,-7.782 -6.335,-6.413C-6.335,-3.323 -3.317,-0.964 1.45,-0.964C6.244,-0.964 9.128,-3.297 9.128,-6.606C9.128,-8.675 7.908,-10.116 6.184,-10.656C4.671,-11.14 3.106,-11.255 0.874,-11.255M-0.036,-20.445C-6.173,-20.445 -10.493,-23.874 -10.493,-29.133C-10.493,-35.468 -4.547,-38.443 0.389,-38.443C2.623,-38.443 4.561,-37.963 6.548,-36.967C9.045,-36.967 12.91,-37.39 14.41,-37.793L14.717,-37.312C14.371,-36.317 13.563,-34.519 12.587,-33.926C11.649,-33.926 9.939,-34.156 9.133,-34.214C10.035,-33.077 10.613,-31.46 10.613,-29.314C10.613,-23.379 5.361,-20.445 -0.036,-20.445M-2.799,-21.02C-3.657,-20.225 -4.136,-19.357 -4.136,-18.741C-4.136,-17.78 -3.084,-16.592 -0.757,-16.592C1.187,-16.592 3.826,-16.612 5.726,-16.612C9.295,-16.612 14.275,-15.254 14.275,-9.596C14.275,-3.275 6.639,2.066 -1.014,2.066C-8.19,2.066 -11.625,-1.657 -11.666,-4.903C-11.666,-6.243 -11.148,-7.225 -10.04,-8.107C-8.629,-9.241 -6.869,-10.541 -5.584,-11.428C-7.804,-12.19 -9.114,-13.402 -9.901,-14.61C-10.528,-15.51 -10.813,-16.808 -10.739,-17.533C-8.215,-18.563 -5.962,-20.249 -4.846,-21.653L-2.799,-21.02Z" style="fill:white;fill-rule:nonzero;"/>
        </g>
        <g transform="matrix(6.68823,0,0,6.68823,17035.5,8382.13)">
            <path d="M0,26.311L0,24.475C2.738,24.13 2.971,23.84 2.971,19.889L2.971,10.171C2.971,6.105 1.159,4.336 -1.48,4.336C-3.278,4.336 -4.885,5.193 -6.521,6.506L-6.521,20.269C-6.521,23.94 -6.25,24.13 -3.528,24.475L-3.528,26.311L-16.556,26.311L-16.556,24.475C-13.28,23.998 -12.935,23.88 -12.935,20.12L-12.935,8.191C-12.935,4.638 -13.376,4.466 -16.109,3.948L-16.109,2.227C-12.954,1.805 -9.385,1.056 -6.444,0C-6.483,0.987 -6.521,2.941 -6.521,4.285C-5.37,3.479 -4.142,2.616 -2.757,1.75C-1.072,0.714 0.164,0.173 1.831,0.173C6.472,0.173 9.388,3.568 9.388,9.336L9.388,20.232C9.388,23.92 9.733,24.093 12.697,24.475L12.697,26.311L0,26.311Z" style="fill:white;fill-rule:nonzero;"/>
        </g>
        <g transform="matrix(6.68823,0,0,6.68823,17222.2,8547.35)">
            <path d="M0,-22.231C-2.42,-22.231 -4.599,-19.607 -5.107,-15.021C-2.445,-15.059 0.104,-15.096 2.864,-15.194C3.75,-15.231 4.095,-15.407 4.095,-16.345C4.153,-19.282 2.588,-22.231 0,-22.231M10.273,-3.769C6.702,1.208 2.3,2.299 0.085,2.299C-7.384,2.299 -11.718,-3.418 -11.718,-10.185C-11.718,-14.172 -9.999,-18.022 -7.604,-20.442C-5.074,-23.071 -1.872,-24.53 1.233,-24.53C6.65,-24.53 10.523,-19.99 10.485,-15.312C10.465,-14.273 10.367,-13.456 9.596,-13.264C8.484,-12.996 0.63,-12.553 -5.394,-12.323C-5.304,-5.659 -1.445,-2.532 2.678,-2.532C4.961,-2.532 7.184,-3.398 9.276,-5.242L10.273,-3.769Z" style="fill:white;fill-rule:nonzero;"/>
        </g>
        <g transform="matrix(6.68823,0,0,6.68823,17398.4,8547.35)">
            <path d="M0,-22.231C-2.42,-22.231 -4.599,-19.607 -5.107,-15.021C-2.445,-15.059 0.104,-15.096 2.864,-15.194C3.75,-15.231 4.095,-15.407 4.095,-16.345C4.153,-19.282 2.588,-22.231 0,-22.231M10.273,-3.769C6.702,1.208 2.3,2.299 0.085,2.299C-7.384,2.299 -11.718,-3.418 -11.718,-10.185C-11.718,-14.172 -9.999,-18.022 -7.604,-20.442C-5.074,-23.071 -1.872,-24.53 1.233,-24.53C6.65,-24.53 10.523,-19.99 10.485,-15.312C10.465,-14.273 10.367,-13.456 9.596,-13.264C8.484,-12.996 0.63,-12.553 -5.394,-12.323C-5.304,-5.659 -1.445,-2.532 2.678,-2.532C4.961,-2.532 7.184,-3.398 9.276,-5.242L10.273,-3.769Z" style="fill:white;fill-rule:nonzero;"/>
        </g>
        <g transform="matrix(6.68823,0,0,6.68823,17588.5,8382.39)">
            <path d="M0,26.273L-14.506,26.273L-14.506,24.437C-11.255,24.092 -10.948,23.805 -10.948,20.252L-10.948,7.872C-10.948,4.672 -11.178,4.425 -14.103,3.91L-14.103,2.247C-10.797,1.824 -7.796,1.133 -4.531,0L-4.531,6.254C-2.143,2.627 0.049,0.135 2.59,0.135C4.72,0.135 6.189,1.534 6.189,3.346C6.189,5.642 4.558,7.132 3.596,7.632C2.873,7.978 2.335,7.771 1.913,7.406C0.976,6.58 0.247,5.78 -0.751,5.78C-1.735,5.78 -3.415,6.89 -4.531,9.339L-4.531,20.231C-4.531,23.805 -4.169,24.017 0,24.437L0,26.273Z" style="fill:white;fill-rule:nonzero;"/>
        </g>
        <g transform="matrix(6.68823,0,0,6.68823,17748.2,8509.56)">
            <path d="M0,-10.931C-1.335,-14.717 -3.13,-16.719 -6.115,-16.719C-7.867,-16.719 -9.347,-15.467 -9.347,-13.428C-9.347,-11.253 -7.828,-10.14 -4.756,-8.756C0.008,-6.584 2.93,-4.707 2.93,-0.424C2.93,5.169 -2.316,7.949 -7.16,7.949C-10.153,7.949 -13.097,6.878 -14.306,6.262C-14.558,4.818 -15.076,1.13 -15.268,-0.844L-13.45,-1.169C-12.302,2.476 -10.062,5.73 -6.222,5.73C-4.035,5.73 -2.681,4.346 -2.681,2.416C-2.681,0.35 -3.785,-0.973 -7.171,-2.619C-11.049,-4.501 -14.591,-6.454 -14.591,-11.008C-14.591,-15.433 -10.912,-18.88 -5.055,-18.88C-2.412,-18.88 -0.345,-18.304 0.918,-18.057C1.091,-16.564 1.568,-12.901 1.82,-11.408L0,-10.931Z" style="fill:white;fill-rule:nonzero;"/>
        </g>
        <g transform="matrix(6.68823,0,0,6.68823,15788.2,8438.84)">
            <path d="M0,5.623L7.914,5.623L6.081,-0.625C5.29,-3.457 4.415,-6.373 4.082,-8.205L3.915,-8.205C3.54,-6.456 2.666,-3.332 1.916,-0.75L0,5.623ZM7.789,-11.787L16.868,17.41L11.412,17.41L9.205,9.996L-1.291,9.996L-3.499,17.41L-8.747,17.41L0.292,-11.787L7.789,-11.787Z" style="fill-rule:nonzero;"/>
        </g>
    </g>
</svg>
