<?xml version="1.0" encoding="UTF-8" standalone="no"?>
<!DOCTYPE svg PUBLIC "-//W3C//DTD SVG 1.1//EN" "http://www.w3.org/Graphics/SVG/1.1/DTD/svg11.dtd">
<svg width="100%" height="100%" viewBox="0 0 2127 2166" version="1.1" xmlns="http://www.w3.org/2000/svg" xmlns:xlink="http://www.w3.org/1999/xlink" xml:space="preserve" xmlns:serif="http://www.serif.com/" style="fill-rule:evenodd;clip-rule:evenodd;stroke-linejoin:round;stroke-miterlimit:2;">
    <g transform="matrix(1,0,0,1,-5693.99,-5720.72)">
        <g id="Page-6" serif:id="Page 6" transform="matrix(8.33333,0,0,8.33333,4687.5,4687.5)">
            <rect x="0" y="0" width="500" height="500" style="fill:none;"/>
            <g id="Layer-1" serif:id="Layer 1">
                <g transform="matrix(1,0,0,1,248.385,128.663)">
                    <path d="M0,255.217C-70.476,255.217 -127.607,198.085 -127.606,127.609C-127.605,57.133 -70.472,0.001 0.003,0.001C70.479,0 127.61,57.132 127.609,127.608L127.609,127.609C127.608,198.085 70.476,255.217 0,255.217" style="fill:rgb(3,4,4);fill-rule:nonzero;"/>
                </g>
                <g transform="matrix(1,0,0,1,258.624,178.544)">
                    <path d="M0,5.291L-4.947,2.82L-14.121,-24.661L-2.066,-28.686L5.44,-6.196L10.388,-3.725L21.63,29.952L9.575,33.977L0,5.291Z" style="fill:rgb(3,4,4);fill-rule:nonzero;"/>
                </g>
                <g transform="matrix(1,0,0,1,271.358,156.185)">
                    <path d="M0,50.009L-8.647,24.102L-13.595,21.631L-20.529,0.857L-17.96,0L-11.381,19.71L-6.433,22.181L2.569,49.151L0,50.009Z" style="fill:rgb(3,4,4);fill-rule:nonzero;"/>
                </g>
                <g transform="matrix(1,0,0,1,161.928,233.756)">
                    <path d="M0,-3.405L-4.947,-5.876L-9.729,-20.199L2.325,-24.222L5.44,-14.893L10.388,-12.421L20.14,16.794L8.084,20.817L0,-3.405Z" style="fill:rgb(3,4,4);fill-rule:nonzero;"/>
                </g>
                <g transform="matrix(1,0,0,1,173.172,215.859)">
                    <path d="M0,32.389L-7.158,10.945L-12.105,8.474L-14.647,0.858L-12.078,0L-9.891,6.552L-4.944,9.024L2.569,31.531L0,32.389Z" style="fill:rgb(3,4,4);fill-rule:nonzero;"/>
                </g>
                <g transform="matrix(1,0,0,1,272.412,196.51)">
                    <path d="M0,-8.845L2.471,-13.792L-1.335,-25.192L10.72,-29.215L16.192,-12.823L13.721,-7.875L21.807,16.347L9.751,20.37L0,-8.845Z" style="fill:rgb(3,4,4);fill-rule:nonzero;"/>
                </g>
                <g transform="matrix(1,0,0,1,285.323,173.62)">
                    <path d="M0,36.934L-7.513,14.426L-5.042,9.479L-7.919,0.858L-5.35,0L-2.117,9.685L-4.589,14.633L2.569,36.076L0,36.934Z" style="fill:rgb(3,4,4);fill-rule:nonzero;"/>
                </g>
                <g transform="matrix(0.948526,-0.3167,-0.3167,-0.948526,198.664,155.237)">
                    <rect x="6.258" y="-38.499" width="12.705" height="41.581" style="fill:rgb(3,4,4);"/>
                </g>
                <g transform="matrix(-0.316608,-0.948557,-0.948557,0.316608,229.672,159.638)">
                    <rect x="-19.506" y="14.053" width="31.582" height="2.708" style="fill:rgb(3,4,4);"/>
                </g>
                <g transform="matrix(0.948581,-0.316535,-0.316535,-0.948581,176.316,136.543)">
                    <rect x="6.655" y="-40.967" width="12.711" height="44.113" style="fill:rgb(3,4,4);"/>
                </g>
                <g transform="matrix(-0.316615,-0.948554,-0.948554,0.316615,209.095,141.201)">
                    <rect x="-21.173" y="15.254" width="34.114" height="2.708" style="fill:rgb(3,4,4);"/>
                </g>
                <g transform="matrix(1,0,0,1,183.959,185.714)">
                    <path d="M0,8.495L-9.53,-0.259L-15.313,-17.581L-3.258,-21.606L1.485,-7.398L11.016,1.357L19.268,26.078L7.212,30.101L0,8.495Z" style="fill:rgb(3,4,4);fill-rule:nonzero;"/>
                </g>
                <g transform="matrix(1,0,0,1,194.331,170.435)">
                    <path d="M0,39.055L-6.038,20.966L-15.568,12.211L-19.358,0.858L-16.789,0L-13.221,10.69L-3.69,19.445L2.569,38.197L0,39.055Z" style="fill:rgb(3,4,4);fill-rule:nonzero;"/>
                </g>
                <g transform="matrix(0.948581,-0.316535,-0.316535,-0.948581,292.351,190.842)">
                    <rect x="2.694" y="-16.584" width="12.71" height="19.087" style="fill:rgb(3,4,4);"/>
                </g>
                <g transform="matrix(-0.316591,-0.948562,-0.948562,0.316591,307.61,193.011)">
                    <rect x="-4.698" y="3.384" width="9.087" height="2.708" style="fill:rgb(3,4,4);"/>
                </g>
                <g transform="matrix(0.948581,-0.316535,-0.316535,-0.948581,223.413,189.877)">
                    <rect x="2.765" y="-17.02" width="12.71" height="19.534" style="fill:rgb(3,4,4);"/>
                </g>
                <g transform="matrix(-0.316637,-0.948547,-0.948547,0.316637,238.985,192.09)">
                    <rect x="-4.992" y="3.595" width="9.534" height="2.709" style="fill:rgb(3,4,4);"/>
                </g>
                <g transform="matrix(0.948581,-0.316535,-0.316535,-0.948581,151.804,238.66)">
                    <rect x="4.274" y="-26.309" width="12.711" height="29.068" style="fill:rgb(3,4,4);"/>
                </g>
                <g transform="matrix(-0.316605,-0.948557,-0.948557,0.316605,174.05,241.822)">
                    <rect x="-11.268" y="8.118" width="19.068" height="2.708" style="fill:rgb(3,4,4);"/>
                </g>
                <g transform="matrix(1,0,0,1,251.666,146.525)">
                    <path d="M0,17.517C-1.347,17.517 -2.699,17.197 -3.911,16.591C-6.002,15.547 -7.562,13.749 -8.302,11.53C-9.043,9.315 -8.875,6.94 -7.829,4.847C-6.785,2.754 -4.987,1.193 -2.769,0.453C-1.869,0.153 -0.936,0 0.008,0C1.354,0 2.705,0.32 3.917,0.925C6.008,1.97 7.567,3.766 8.31,5.983C9.05,8.205 8.882,10.579 7.838,12.671C6.792,14.765 4.994,16.326 2.774,17.065C1.882,17.364 0.946,17.517 0,17.517" style="fill:rgb(3,4,4);fill-rule:nonzero;"/>
                </g>
                <g transform="matrix(1,0,0,1,251.671,156.209)">
                    <path d="M0,-1.974C-0.112,-1.974 -0.224,-1.956 -0.333,-1.92C-0.598,-1.831 -0.813,-1.644 -0.939,-1.394C-1.064,-1.143 -1.084,-0.859 -0.995,-0.594C-0.906,-0.328 -0.72,-0.113 -0.469,0.012C-0.219,0.137 0.065,0.157 0.331,0.069C0.596,-0.02 0.811,-0.207 0.936,-0.457C1.061,-0.708 1.082,-0.992 0.993,-1.257C0.904,-1.523 0.718,-1.738 0.467,-1.863C0.32,-1.937 0.16,-1.974 0,-1.974M-0.005,2.833C-0.579,2.833 -1.15,2.699 -1.68,2.435C-2.577,1.987 -3.247,1.215 -3.564,0.264C-3.882,-0.688 -3.81,-1.706 -3.362,-2.604C-2.913,-3.502 -2.142,-4.171 -1.19,-4.489C-0.238,-4.807 0.78,-4.734 1.677,-4.286C2.575,-3.838 3.244,-3.067 3.562,-2.115C3.88,-1.163 3.808,-0.145 3.359,0.753C2.911,1.651 2.14,2.32 1.188,2.638C0.797,2.768 0.396,2.833 -0.005,2.833" style="fill:rgb(3,4,4);fill-rule:nonzero;"/>
                </g>
                <g transform="matrix(1,0,0,1,210.523,142.184)">
                    <path d="M0,17.517C-1.346,17.517 -2.697,17.198 -3.908,16.593C-6.003,15.547 -7.563,13.748 -8.303,11.529C-9.043,9.316 -8.876,6.941 -7.831,4.847C-6.786,2.754 -4.989,1.194 -2.771,0.453C-1.869,0.152 -0.936,0 0.007,0C1.354,0 2.705,0.32 3.916,0.925C6.01,1.972 7.57,3.769 8.31,5.987C9.049,8.205 8.881,10.579 7.836,12.671C6.792,14.763 4.995,16.324 2.775,17.064C1.876,17.365 0.942,17.517 0,17.517" style="fill:rgb(3,4,4);fill-rule:nonzero;"/>
                </g>
                <g transform="matrix(1,0,0,1,210.526,151.867)">
                    <path d="M0,-1.973C-0.11,-1.973 -0.221,-1.956 -0.331,-1.919C-0.597,-1.83 -0.812,-1.644 -0.937,-1.393C-1.062,-1.143 -1.082,-0.859 -0.993,-0.593C-0.905,-0.328 -0.718,-0.113 -0.467,0.013C-0.217,0.138 0.067,0.158 0.332,0.069C0.598,-0.02 0.813,-0.206 0.938,-0.457C1.063,-0.707 1.083,-0.991 0.995,-1.257C0.848,-1.695 0.439,-1.973 0,-1.973M-0.003,2.833C-0.578,2.833 -1.149,2.7 -1.678,2.435C-2.575,1.987 -3.245,1.216 -3.562,0.264C-3.88,-0.687 -3.808,-1.706 -3.36,-2.603C-2.911,-3.501 -2.14,-4.17 -1.189,-4.488C-0.236,-4.806 0.782,-4.734 1.679,-4.286C2.577,-3.837 3.246,-3.066 3.564,-2.115C3.881,-1.163 3.81,-0.144 3.361,0.753C2.913,1.651 2.142,2.32 1.19,2.638C0.799,2.769 0.397,2.833 -0.003,2.833" style="fill:rgb(3,4,4);fill-rule:nonzero;"/>
                </g>
                <g transform="matrix(1,0,0,1,305.278,192.227)">
                    <path d="M0,17.515C-3.775,17.515 -7.114,15.11 -8.309,11.53C-9.049,9.314 -8.88,6.94 -7.835,4.847C-6.789,2.753 -4.992,1.193 -2.776,0.453C-1.875,0.152 -0.941,0 0.001,0C1.348,0 2.699,0.32 3.91,0.925C6.004,1.971 7.564,3.768 8.304,5.988C9.044,8.205 8.876,10.579 7.832,12.67C6.783,14.765 4.986,16.325 2.77,17.064C1.872,17.364 0.94,17.515 0,17.515" style="fill:rgb(3,4,4);fill-rule:nonzero;"/>
                </g>
                <g transform="matrix(1,0,0,1,304.282,200.53)">
                    <path d="M0,0.787C0.183,1.335 0.778,1.632 1.326,1.449C1.591,1.36 1.806,1.174 1.932,0.923C2.057,0.673 2.077,0.389 1.988,0.123C1.899,-0.142 1.713,-0.357 1.462,-0.482C1.212,-0.607 0.928,-0.628 0.662,-0.539C0.114,-0.356 -0.183,0.239 0,0.787M0.997,4.212C-0.576,4.212 -2.045,3.216 -2.569,1.645L-2.569,1.644C-3.225,-0.32 -2.16,-2.452 -0.195,-3.108C0.757,-3.425 1.775,-3.354 2.673,-2.905C3.57,-2.457 4.24,-1.686 4.557,-0.734C4.875,0.218 4.803,1.236 4.355,2.134C3.906,3.031 3.135,3.701 2.183,4.018C1.79,4.149 1.39,4.212 0.997,4.212" style="fill:rgb(3,4,4);fill-rule:nonzero;"/>
                </g>
                <g transform="matrix(1,0,0,1,301.359,180.486)">
                    <path d="M0,17.513C-3.775,17.513 -7.115,15.108 -8.31,11.528C-9.05,9.309 -8.882,6.935 -7.837,4.844C-6.793,2.751 -4.994,1.19 -2.773,0.45C-1.879,0.151 -0.947,0 -0.006,0C3.77,0 7.108,2.405 8.303,5.985C9.831,10.562 7.351,15.532 2.771,17.062C1.868,17.362 0.938,17.513 0,17.513" style="fill:rgb(3,4,4);fill-rule:nonzero;"/>
                </g>
                <g transform="matrix(1,0,0,1,300.362,188.449)">
                    <path d="M0,1.125C0.183,1.673 0.778,1.971 1.326,1.787C1.874,1.604 2.171,1.01 1.988,0.461C1.805,-0.087 1.21,-0.383 0.662,-0.201C0.397,-0.112 0.182,0.074 0.057,0.325C-0.068,0.575 -0.089,0.86 0,1.125M0.997,4.55C-0.575,4.55 -2.044,3.554 -2.569,1.983C-2.887,1.031 -2.815,0.012 -2.366,-0.885C-1.918,-1.783 -1.147,-2.452 -0.195,-2.77C1.77,-3.425 3.901,-2.361 4.557,-0.396C5.213,1.569 4.148,3.701 2.184,4.356C1.79,4.488 1.39,4.55 0.997,4.55" style="fill:rgb(3,4,4);fill-rule:nonzero;"/>
                </g>
                <g transform="matrix(1,0,0,1,188.767,123.986)">
                    <path d="M0,17.515C-3.775,17.515 -7.114,15.11 -8.31,11.531C-9.05,9.314 -8.881,6.94 -7.836,4.847C-6.79,2.753 -4.993,1.193 -2.777,0.453C-1.877,0.152 -0.942,0 0.001,0C1.347,0 2.698,0.319 3.909,0.924C6.003,1.972 7.563,3.769 8.303,5.987C9.83,10.567 7.348,15.536 2.769,17.064C1.875,17.363 0.942,17.515 0,17.515" style="fill:rgb(3,4,4);fill-rule:nonzero;"/>
                </g>
                <g transform="matrix(1,0,0,1,187.769,132.288)">
                    <path d="M0,0.788C0.183,1.336 0.779,1.633 1.326,1.45C1.874,1.267 2.171,0.672 1.988,0.124C1.9,-0.141 1.713,-0.356 1.462,-0.481C1.212,-0.607 0.928,-0.627 0.662,-0.538C0.114,-0.355 -0.183,0.24 0,0.788ZM0.997,4.213C-0.575,4.213 -2.044,3.217 -2.569,1.646C-3.225,-0.319 -2.16,-2.451 -0.195,-3.107C0.757,-3.425 1.775,-3.353 2.673,-2.904C3.57,-2.456 4.24,-1.685 4.557,-0.733C5.213,1.232 4.148,3.364 2.184,4.019C1.791,4.151 1.391,4.213 0.997,4.213" style="fill:rgb(3,4,4);fill-rule:nonzero;"/>
                </g>
                <g transform="matrix(1,0,0,1,200.552,159.297)">
                    <path d="M0,17.513C-3.775,17.513 -7.114,15.108 -8.31,11.529C-9.837,6.949 -7.354,1.98 -2.776,0.451C-1.877,0.151 -0.947,0 -0.007,0C3.768,0 7.107,2.405 8.303,5.983C9.831,10.565 7.349,15.534 2.77,17.062C1.874,17.362 0.941,17.513 0,17.513" style="fill:rgb(3,4,4);fill-rule:nonzero;"/>
                </g>
                <g transform="matrix(1,0,0,1,199.555,167.26)">
                    <path d="M0,1.125C0.183,1.673 0.778,1.971 1.326,1.787C1.874,1.604 2.171,1.009 1.988,0.461C1.805,-0.087 1.21,-0.384 0.662,-0.201C0.114,-0.018 -0.183,0.577 0,1.125M0.997,4.55C-0.575,4.55 -2.044,3.554 -2.569,1.983C-3.225,0.018 -2.16,-2.114 -0.195,-2.77C1.77,-3.425 3.901,-2.361 4.557,-0.396C5.213,1.569 4.148,3.701 2.184,4.356C1.79,4.488 1.39,4.55 0.997,4.55" style="fill:rgb(3,4,4);fill-rule:nonzero;"/>
                </g>
                <g transform="matrix(1,0,0,1,175.508,160.336)">
                    <path d="M0,17.513C-3.774,17.513 -7.113,15.108 -8.309,11.529C-9.05,9.312 -8.882,6.937 -7.836,4.844C-6.792,2.752 -4.995,1.192 -2.777,0.451C-1.879,0.151 -0.947,0 -0.006,0C3.769,0 7.107,2.405 8.303,5.983C9.831,10.565 7.349,15.534 2.77,17.062C1.877,17.361 0.944,17.513 0,17.513" style="fill:rgb(3,4,4);fill-rule:nonzero;"/>
                </g>
                <g transform="matrix(1,0,0,1,174.511,168.299)">
                    <path d="M0,1.125C0.183,1.673 0.778,1.971 1.326,1.787C1.874,1.604 2.171,1.01 1.988,0.461C1.899,0.196 1.713,-0.019 1.462,-0.144C1.212,-0.269 0.928,-0.29 0.662,-0.201C0.397,-0.112 0.182,0.074 0.056,0.325C-0.069,0.575 -0.089,0.859 0,1.125M0.997,4.55C-0.576,4.55 -2.045,3.554 -2.569,1.983C-2.887,1.031 -2.815,0.012 -2.367,-0.885C-1.918,-1.783 -1.147,-2.452 -0.195,-2.77C1.769,-3.425 3.901,-2.361 4.557,-0.396C5.213,1.569 4.148,3.701 2.183,4.356C1.79,4.488 1.39,4.55 0.997,4.55" style="fill:rgb(3,4,4);fill-rule:nonzero;"/>
                </g>
                <g transform="matrix(1,0,0,1,195.91,201.195)">
                    <path d="M0,17.516C-1.348,17.516 -2.7,17.196 -3.911,16.591C-6.001,15.548 -7.562,13.749 -8.303,11.529C-9.043,9.31 -8.875,6.936 -7.83,4.846C-6.786,2.754 -4.989,1.194 -2.771,0.453C-1.869,0.152 -0.936,0 0.007,0C1.354,0 2.705,0.319 3.916,0.924C6.009,1.97 7.569,3.767 8.31,5.987C9.05,8.207 8.882,10.582 7.834,12.674C6.791,14.763 4.994,16.323 2.775,17.064C1.877,17.364 0.942,17.516 0,17.516" style="fill:rgb(3,4,4);fill-rule:nonzero;"/>
                </g>
                <g transform="matrix(1,0,0,1,195.914,210.88)">
                    <path d="M0,-1.975C-0.112,-1.975 -0.224,-1.957 -0.333,-1.92C-0.881,-1.738 -1.178,-1.143 -0.995,-0.595C-0.906,-0.329 -0.72,-0.114 -0.469,0.011C-0.219,0.136 0.066,0.156 0.331,0.068C0.596,-0.021 0.811,-0.208 0.937,-0.458C1.062,-0.709 1.082,-0.993 0.993,-1.258C0.904,-1.524 0.718,-1.739 0.467,-1.864C0.32,-1.938 0.16,-1.975 0,-1.975M-0.004,2.832C-0.579,2.832 -1.15,2.698 -1.679,2.434C-2.577,1.986 -3.246,1.214 -3.564,0.263C-3.882,-0.689 -3.81,-1.707 -3.361,-2.605C-2.913,-3.503 -2.142,-4.172 -1.19,-4.489C-0.239,-4.807 0.78,-4.735 1.678,-4.287C2.575,-3.839 3.245,-3.068 3.562,-2.116C3.88,-1.164 3.808,-0.146 3.36,0.752C2.911,1.65 2.14,2.319 1.188,2.637C0.798,2.767 0.396,2.832 -0.004,2.832" style="fill:rgb(3,4,4);fill-rule:nonzero;"/>
                </g>
                <g transform="matrix(1,0,0,1,161.857,226.465)">
                    <path d="M0,17.517C-1.345,17.517 -2.696,17.198 -3.907,16.593C-6,15.548 -7.56,13.751 -8.302,11.533C-9.042,9.312 -8.874,6.939 -7.83,4.847C-6.785,2.754 -4.987,1.193 -2.769,0.453C-1.871,0.153 -0.936,0 0.008,0C1.353,0 2.704,0.32 3.915,0.924C6.01,1.97 7.57,3.768 8.31,5.988C9.051,8.202 8.883,10.577 7.837,12.671C6.792,14.764 4.995,16.324 2.776,17.064C1.881,17.364 0.945,17.517 0,17.517" style="fill:rgb(3,4,4);fill-rule:nonzero;"/>
                </g>
                <g transform="matrix(1,0,0,1,161.862,236.15)">
                    <path d="M0,-1.975C-0.112,-1.975 -0.224,-1.957 -0.333,-1.92C-0.598,-1.832 -0.813,-1.645 -0.939,-1.395C-1.064,-1.144 -1.084,-0.86 -0.995,-0.595C-0.906,-0.329 -0.72,-0.114 -0.469,0.011C-0.219,0.136 0.065,0.156 0.331,0.068C0.596,-0.021 0.811,-0.208 0.936,-0.458C1.061,-0.709 1.082,-0.993 0.993,-1.258C0.904,-1.524 0.718,-1.739 0.467,-1.864C0.32,-1.938 0.16,-1.975 0,-1.975M-0.005,2.832C-0.579,2.832 -1.15,2.698 -1.68,2.434C-2.577,1.986 -3.246,1.215 -3.564,0.263C-3.882,-0.689 -3.81,-1.707 -3.362,-2.605C-2.913,-3.503 -2.142,-4.172 -1.19,-4.489C-0.239,-4.807 0.78,-4.735 1.677,-4.287C2.575,-3.839 3.244,-3.068 3.562,-2.116C3.88,-1.164 3.808,-0.146 3.359,0.752C2.911,1.65 2.14,2.319 1.188,2.636C0.798,2.767 0.396,2.832 -0.005,2.832" style="fill:rgb(3,4,4);fill-rule:nonzero;"/>
                </g>
                <g transform="matrix(1,0,0,1,221.71,175.678)">
                    <path d="M0,17.515C-3.775,17.515 -7.115,15.11 -8.31,11.53C-9.05,9.311 -8.882,6.937 -7.837,4.846C-6.789,2.751 -4.992,1.192 -2.775,0.453C-1.878,0.152 -0.943,0 0,0C1.346,0 2.697,0.32 3.909,0.925C6.001,1.969 7.562,3.767 8.303,5.987C9.043,8.206 8.875,10.58 7.83,12.671C6.785,14.764 4.988,16.324 2.77,17.064C1.873,17.363 0.941,17.515 0,17.515" style="fill:rgb(3,4,4);fill-rule:nonzero;"/>
                </g>
                <g transform="matrix(1,0,0,1,220.713,183.981)">
                    <path d="M0,0.788C0.183,1.336 0.778,1.633 1.326,1.45C1.591,1.361 1.806,1.175 1.931,0.924C2.056,0.674 2.077,0.39 1.988,0.124C1.899,-0.141 1.713,-0.356 1.462,-0.481C1.212,-0.606 0.928,-0.627 0.662,-0.538C0.397,-0.449 0.182,-0.263 0.056,-0.012C-0.069,0.238 -0.089,0.523 0,0.788M0.997,4.213C-0.576,4.213 -2.045,3.217 -2.569,1.646C-2.887,0.694 -2.815,-0.325 -2.367,-1.222C-1.918,-2.12 -1.147,-2.789 -0.195,-3.107C0.756,-3.425 1.775,-3.353 2.673,-2.904C3.57,-2.456 4.24,-1.685 4.557,-0.733C4.875,0.219 4.803,1.237 4.354,2.135C3.906,3.032 3.135,3.702 2.183,4.019C1.79,4.15 1.39,4.213 0.997,4.213" style="fill:rgb(3,4,4);fill-rule:nonzero;"/>
                </g>
                <g transform="matrix(1,0,0,1,277.924,163.013)">
                    <path d="M0,17.516C-1.346,17.516 -2.696,17.197 -3.907,16.592C-6.002,15.546 -7.562,13.748 -8.302,11.529C-9.042,9.314 -8.874,6.94 -7.828,4.847C-6.783,2.753 -4.986,1.192 -2.769,0.452C-1.868,0.152 -0.935,0 0.008,0C1.354,0 2.706,0.319 3.917,0.924C6.007,1.969 7.567,3.765 8.31,5.982C9.838,10.566 7.355,15.535 2.776,17.063C1.882,17.363 0.946,17.516 0,17.516" style="fill:rgb(3,4,4);fill-rule:nonzero;"/>
                </g>
                <g transform="matrix(1,0,0,1,277.929,172.697)">
                    <path d="M0,-1.975C-0.112,-1.975 -0.224,-1.957 -0.333,-1.92C-0.598,-1.832 -0.813,-1.645 -0.938,-1.395C-1.064,-1.144 -1.084,-0.86 -0.995,-0.595C-0.906,-0.329 -0.72,-0.114 -0.469,0.011C-0.219,0.136 0.065,0.157 0.331,0.067C0.879,-0.115 1.176,-0.71 0.993,-1.258C0.904,-1.524 0.718,-1.739 0.467,-1.864C0.32,-1.938 0.16,-1.975 0,-1.975M-0.005,2.832C-0.579,2.832 -1.15,2.698 -1.68,2.434C-2.577,1.986 -3.246,1.214 -3.564,0.263C-4.22,-1.702 -3.155,-3.834 -1.19,-4.49C-0.238,-4.807 0.78,-4.735 1.678,-4.287C2.575,-3.839 3.245,-3.068 3.562,-2.116C4.218,-0.151 3.153,1.981 1.188,2.636C0.798,2.767 0.396,2.832 -0.005,2.832" style="fill:rgb(3,4,4);fill-rule:nonzero;"/>
                </g>
                <g transform="matrix(1,0,0,1,159.177,205.627)">
                    <path d="M0,17.513C-3.775,17.513 -7.115,15.108 -8.31,11.528C-9.05,9.307 -8.882,6.931 -7.834,4.84C-6.792,2.752 -4.995,1.191 -2.775,0.451C-1.879,0.151 -0.947,0 -0.007,0C3.768,0 7.106,2.405 8.302,5.983C9.044,8.2 8.876,10.575 7.83,12.669C6.786,14.761 4.989,16.321 2.771,17.062C1.868,17.362 0.938,17.513 0,17.513" style="fill:rgb(3,4,4);fill-rule:nonzero;"/>
                </g>
                <g transform="matrix(1,0,0,1,158.18,213.59)">
                    <path d="M0,1.125C0.183,1.673 0.778,1.97 1.326,1.787C1.591,1.699 1.806,1.512 1.931,1.262C2.056,1.011 2.077,0.727 1.988,0.461C1.899,0.196 1.713,-0.019 1.462,-0.144C1.212,-0.269 0.928,-0.29 0.662,-0.201C0.397,-0.112 0.182,0.074 0.056,0.325C-0.069,0.575 -0.089,0.859 0,1.125M0.997,4.55C-0.576,4.55 -2.045,3.554 -2.569,1.983C-2.887,1.031 -2.815,0.012 -2.367,-0.885C-1.918,-1.783 -1.147,-2.452 -0.195,-2.77C1.77,-3.425 3.901,-2.361 4.557,-0.396C4.875,0.556 4.803,1.574 4.354,2.472C3.906,3.369 3.135,4.039 2.183,4.356C1.79,4.488 1.39,4.55 0.997,4.55" style="fill:rgb(3,4,4);fill-rule:nonzero;"/>
                </g>
                <g transform="matrix(1,0,0,1,233.501,145.562)">
                    <path d="M0,14.638C-4.036,14.638 -7.319,11.355 -7.319,7.319C-7.319,3.283 -4.036,0 0,0C4.036,0 7.319,3.283 7.319,7.319C7.319,11.355 4.036,14.638 0,14.638" style="fill:rgb(3,4,4);fill-rule:nonzero;"/>
                </g>
                <g transform="matrix(0,-1,-1,0,233.501,150.561)">
                    <path d="M-2.319,-2.319C-3.6,-2.319 -4.638,-1.281 -4.638,-0C-4.638,1.281 -3.6,2.319 -2.319,2.319C-1.038,2.319 -0,1.281 -0,-0C-0,-1.281 -1.038,-2.319 -2.319,-2.319" style="fill:rgb(3,4,4);fill-rule:nonzero;"/>
                </g>
                <g transform="matrix(1,0,0,1,241.887,162.953)">
                    <path d="M0,19.521C-5.375,19.521 -9.747,15.143 -9.747,9.76C-9.747,4.378 -5.375,0 0,0C5.375,0 9.748,4.378 9.748,9.76C9.748,15.143 5.375,19.521 0,19.521" style="fill:rgb(3,4,4);fill-rule:nonzero;"/>
                </g>
                <g transform="matrix(0,-1,-1,0,241.887,167.965)">
                    <path d="M-4.748,-4.748C-7.377,-4.748 -9.509,-2.623 -9.509,-0.001C-9.509,2.621 -7.377,4.748 -4.748,4.748C-2.119,4.748 0.013,2.621 0.013,-0.001C0.013,-2.623 -2.119,-4.748 -4.748,-4.748" style="fill:rgb(3,4,4);fill-rule:nonzero;"/>
                </g>
                <g transform="matrix(1,0,0,1,250.464,173.599)">
                    <path d="M0,13.333C-3.676,13.333 -6.667,10.342 -6.667,6.666C-6.667,2.991 -3.676,0 0,0C3.676,0 6.666,2.991 6.666,6.666C6.666,10.342 3.676,13.333 0,13.333" style="fill:rgb(3,4,4);fill-rule:nonzero;"/>
                </g>
                <g transform="matrix(0,-1,-1,0,250.464,178.599)">
                    <path d="M-1.666,-1.666C-2.587,-1.666 -3.334,-0.92 -3.334,0.001C-3.334,0.921 -2.587,1.666 -1.666,1.666C-0.746,1.666 0.001,0.921 0.001,0.001C0.001,-0.92 -0.746,-1.666 -1.666,-1.666" style="fill:rgb(3,4,4);fill-rule:nonzero;"/>
                </g>
                <g transform="matrix(1,0,0,1,205.526,173.395)">
                    <path d="M0,17.342C-4.781,17.342 -8.672,13.452 -8.672,8.671C-8.672,3.889 -4.781,0 0,0C4.781,0 8.671,3.889 8.671,8.671C8.671,13.452 4.781,17.342 0,17.342" style="fill:rgb(3,4,4);fill-rule:nonzero;"/>
                </g>
                <g transform="matrix(0,-1,-1,0,205.526,178.395)">
                    <path d="M-3.671,-3.671C-5.699,-3.671 -7.342,-2.027 -7.342,0C-7.342,2.028 -5.699,3.671 -3.671,3.671C-1.643,3.671 0,2.028 0,0C0,-2.027 -1.643,-3.671 -3.671,-3.671" style="fill:rgb(3,4,4);fill-rule:nonzero;"/>
                </g>
                <g transform="matrix(1,0,0,1,194.468,170.98)">
                    <path d="M0,13.924C-3.839,13.924 -6.962,10.801 -6.962,6.962C-6.962,3.123 -3.839,0 0,0C3.839,0 6.962,3.123 6.962,6.962C6.962,10.801 3.839,13.924 0,13.924" style="fill:rgb(3,4,4);fill-rule:nonzero;"/>
                </g>
                <g transform="matrix(0,-1,-1,0,194.468,175.98)">
                    <path d="M-1.962,-1.962C-3.046,-1.962 -3.924,-1.084 -3.924,0C-3.924,1.084 -3.046,1.962 -1.962,1.962C-0.878,1.962 0,1.084 0,0C0,-1.084 -0.878,-1.962 -1.962,-1.962" style="fill:rgb(3,4,4);fill-rule:nonzero;"/>
                </g>
                <g transform="matrix(1,0,0,1,191.12,235.787)">
                    <path d="M0,68.495C-2.755,68.18 -6.04,65.948 -15.175,58.944C-17.199,57.392 -19.954,55.28 -20.771,54.797L-21.149,54.632L-21.589,54.312C-21.859,54.116 -22.197,53.913 -22.571,53.682C-24.549,52.456 -27.858,50.404 -30.118,46.53C-32.417,42.591 -34.225,26.381 -35.098,17.068L-35.314,14.748L-31.003,10.378L-31.647,7.792C-32.138,5.816 -31.808,3.81 -30.74,2.284C-29.732,0.843 -28.19,-0.056 -26.396,-0.249C-26.161,-0.274 -25.933,-0.286 -25.708,-0.286C-24.631,-0.286 -23.208,-0.018 -21.793,1.043L-20.602,-0.165L-17.78,0.604C-17.036,0.807 -13.188,1.946 -10.491,4.434L-10.287,4.622L-10.105,4.831C-8.825,6.306 -3.334,7.494 0.3,8.28C7.127,9.757 14.187,11.284 17.141,16.531L20.176,21.922L14.27,23.759C14.05,23.828 13.81,23.916 13.57,24.011C14.265,25.322 15.488,26.954 16.561,27.711C20.674,30.614 27.755,47.401 26.347,52.872C25.739,55.228 23.849,56.917 21.529,57.175C20.989,57.285 19.267,58.186 18.126,58.783C15.955,59.92 13.494,61.208 10.836,61.941C8.869,62.484 5.833,65.139 4.305,66.849L2.58,68.781L0,68.495Z" style="fill:rgb(3,4,4);fill-rule:nonzero;"/>
                </g>
                <g transform="matrix(1,0,0,1,204.798,272.151)">
                    <path d="M0,-4.568C-2.533,-6.356 -5.801,-10.988 -5.661,-14.102C-5.579,-15.923 -0.894,-17.379 -0.894,-17.379C-4.441,-23.681 -22.598,-22.54 -27.559,-28.255C-29.496,-30.042 -32.774,-30.936 -32.774,-30.936L-35.293,-28.382C-36.3,-29.104 -37.197,-29.827 -37.743,-30.561C-38.137,-31.09 -38.711,-31.731 -39.54,-31.641C-40.563,-31.532 -40.654,-30.509 -40.474,-29.782C-40.033,-28.012 -39.592,-26.242 -39.151,-24.472L-43.797,-19.763C-43.797,-19.763 -41.563,4.072 -39.477,7.648C-37.392,11.223 -33.965,12.713 -32.326,13.904C-30.052,14.898 -16.064,26.826 -13.109,27.163C-13.109,27.163 -8.491,21.949 -4.171,20.757C0.149,19.565 4.618,16.139 7.3,15.841C9.981,15.543 3.006,-2.446 0,-4.568" style="fill:rgb(3,4,4);fill-rule:nonzero;"/>
                </g>
                <g transform="matrix(1,0,0,1,283.051,227.704)">
                    <path d="M0,44.228C-3.55,43.289 -7.409,42.832 -11.799,42.832C-16.886,42.832 -21.979,43.42 -27.372,44.044C-32.833,44.675 -38.479,45.329 -44.191,45.329C-45.168,45.329 -46.134,45.309 -47.069,45.271C-47.664,45.313 -48.269,45.334 -48.872,45.334C-53.877,45.334 -58.309,43.92 -62.596,42.552C-65.375,41.665 -68.001,40.829 -70.605,40.44C-71.389,40.308 -72.442,40.29 -73.462,40.273C-75.489,40.238 -77.786,40.199 -79.917,39.447L-87.261,36.855L-81.848,31.256C-77.508,26.768 -61.79,25.546 -57.076,25.279L-56.669,25.256L-56.264,25.299C-49.582,26.01 -44.12,26.356 -39.566,26.356C-22.97,26.356 -16.669,21.919 -1.447,11.203C1.985,8.786 5.876,6.047 10.372,3.022L16.756,-1.273L18.088,6.305C19.398,13.762 15.248,21.674 11.234,29.327C9.056,33.482 6.997,37.406 6.105,40.702L4.807,45.501L0,44.228Z" style="fill:rgb(3,4,4);fill-rule:nonzero;"/>
                </g>
                <g transform="matrix(1,0,0,1,296.214,268.709)">
                    <path d="M0,-33.835C-29.898,-13.721 -32.242,-6.719 -69.956,-10.734C-74.326,-10.486 -88.702,-9.08 -91.415,-6.274C-89.088,-5.452 -85.589,-5.943 -83.031,-5.511C-75.318,-4.361 -68.301,-0.066 -60.317,-0.743C-44.097,0 -27.96,-5.867 -11.883,-1.61C-9.182,-11.591 1.647,-24.466 0,-33.835" style="fill:rgb(3,4,4);fill-rule:nonzero;"/>
                </g>
                <g transform="matrix(1,0,0,1,238.84,265.392)">
                    <path d="M0,41.191C-0.272,41.011 -1.106,40.744 -1.665,40.565L-2.015,40.453C-10.077,37.694 -16.333,33.698 -20.686,28.548L-20.807,28.406L-20.917,28.253C-23.231,25.057 -23.959,21.472 -24.6,18.31C-24.818,17.235 -25.023,16.219 -25.277,15.283C-25.762,13.499 -26.74,11.722 -27.776,9.842C-28.806,7.974 -29.87,6.044 -30.654,3.802L-32.426,-1.256L-27.257,-2.672C-26.467,-2.889 -25.599,-2.998 -24.678,-2.998C-21.438,-2.998 -18.306,-1.693 -17.423,-1.292L-17.02,-1.11L-16.654,-0.86C-13.178,1.53 -7.788,4.378 -1.849,4.378C-0.249,4.378 1.326,4.166 2.833,3.749L2.948,3.718C3.403,3.604 3.858,3.474 4.314,3.346C6.073,2.85 8.066,2.288 10.323,2.288C10.843,2.288 11.36,2.319 11.861,2.379L12.138,2.414L12.409,2.477C13.916,2.834 14.95,2.986 15.866,2.986C16.38,2.986 16.845,2.935 17.287,2.831L17.488,2.784L17.692,2.753C25.062,1.65 32.576,1.09 40.026,1.09C41.371,1.09 42.716,1.109 44.06,1.145L51.674,1.349L48.458,8.254C44.747,16.222 39.105,23.265 32.142,28.624L24.187,34.744L24.117,27.246C23.881,27.453 23.648,27.654 23.421,27.849C22.617,28.544 21.857,29.199 21.33,29.831C21.023,30.199 20.694,30.679 20.347,31.188C19.755,32.054 19.083,33.036 18.18,33.991L18.053,34.125L17.917,34.249C15.255,36.678 12.301,38.405 9.443,40.075C8.341,40.719 7.299,41.328 6.298,41.962L2.788,44.189L0,41.191Z" style="fill:rgb(3,4,4);fill-rule:nonzero;"/>
                </g>
                <g transform="matrix(1,0,0,1,257.272,297.089)">
                    <path d="M0,-23.999C-2.427,-23.428 -4.798,-23.792 -7.174,-24.354C-9.571,-24.644 -11.923,-23.719 -14.265,-23.13C-22.596,-20.822 -31.043,-23.71 -37.919,-28.436C-39.608,-29.201 -42.558,-30.043 -44.368,-29.547C-42.937,-25.461 -40.054,-22.034 -38.885,-17.723C-37.838,-13.866 -37.644,-9.612 -35.3,-6.376C-31.082,-1.387 -25.024,1.906 -18.906,3.999C-17.438,4.475 -15.864,4.914 -14.813,6.044C-11.148,3.719 -7.104,1.796 -3.886,-1.142C-2.761,-2.332 -1.991,-3.811 -0.943,-5.068C0.751,-7.098 3.125,-8.496 4.712,-10.61C7.12,-13.818 7.512,-18.397 10.527,-21.041C10.571,-16.372 10.616,-11.704 10.66,-7.036C16.988,-11.905 22.122,-18.315 25.494,-25.553C16.972,-25.782 8.431,-25.261 0,-23.999" style="fill:rgb(3,4,4);fill-rule:nonzero;"/>
                </g>
                <g transform="matrix(1,0,0,1,281.032,208.929)">
                    <path d="M0,76.61C-2.533,71.964 0.594,66.838 2.274,64.083L2.453,63.788C3.671,61.615 4.996,59.51 6.278,57.475C8.022,54.707 9.682,52.073 11.026,49.374C10.968,48.922 10.882,48.427 10.793,47.919C10.538,46.461 10.249,44.81 10.354,42.945C10.487,39.567 11.919,37.71 12.777,36.597C13.289,35.933 13.501,35.658 13.288,33.574L13.266,33.357L13.263,33.138C13.172,26.842 14.301,22.435 15.464,19.379C15.125,19.356 14.778,19.333 14.43,19.31C12.473,19.178 10.06,19.017 7.104,18.777L-1.617,18.069L3.419,10.915C4.916,8.789 6.812,7.657 8.197,6.83C9.444,6.086 9.91,5.775 10.237,5.203L11.523,2.962L14.096,2.714C14.729,2.652 15.376,2.599 16.043,2.551C15.954,1.362 16.092,-0.319 17.175,-1.828C18.072,-3.078 19.404,-3.892 20.924,-4.12L21.292,-4.176L21.764,-4.183C22.935,-4.183 25.004,-3.813 26.625,-1.537C26.979,-1.685 27.347,-1.794 27.719,-1.862L28.164,-1.943L28.679,-1.949C29.761,-1.949 32.437,-1.585 33.921,1.785C33.97,1.861 34.173,2.105 34.387,2.355C34.68,2.356 34.972,2.357 35.265,2.357C37.077,2.357 38.649,2.333 40.073,2.284L45.059,2.112L45.307,8.793C45.765,20.803 46.096,29.481 38.895,41.546C38.778,41.74 38.746,41.793 38.93,42.156L39.343,42.976L39.438,43.89C39.859,47.966 39.386,52.647 38.104,57.072L37.813,58.07L37.15,58.871C33.292,63.523 27.821,65.579 22.994,67.393C19.105,68.854 15.433,70.234 13.19,72.681L13.091,72.791L12.984,72.893C12.629,73.239 12.208,73.729 11.764,74.248C10.486,75.737 8.898,77.589 6.568,78.716L2.28,80.793L0,76.61Z" style="fill:rgb(3,4,4);fill-rule:nonzero;"/>
                </g>
                <g transform="matrix(1,0,0,1,321.279,276.609)">
                    <path d="M0,-60.399C-2.732,-60.305 -5.487,-60.315 -8.246,-60.342C-9.078,-61.535 -10.379,-62.688 -10.902,-63.88C-11.062,-64.244 -11.294,-64.684 -11.63,-64.623C-12.045,-64.548 -12.082,-63.844 -12.009,-63.344C-11.863,-62.354 -11.718,-61.365 -11.573,-60.375C-11.906,-60.378 -12.24,-60.382 -12.573,-60.385C-13.706,-62.266 -16.449,-64.04 -17.432,-65.889C-17.684,-66.363 -18.051,-66.935 -18.582,-66.856C-19.236,-66.757 -19.294,-65.843 -19.178,-65.192C-18.892,-63.584 -18.606,-61.976 -18.32,-60.368C-20.788,-60.325 -23.243,-60.223 -25.671,-59.99C-27.543,-56.725 -30.823,-56.609 -32.738,-53.887C-7.432,-51.833 -22.285,-55.567 -21.984,-34.614C-21.269,-27.612 -24.749,-28.821 -24.899,-24.497C-25.045,-22.07 -24.141,-19.709 -24.146,-17.322C-26.706,-11.773 -30.48,-6.73 -33.474,-1.372C-34.621,0.529 -37.085,4.283 -35.857,6.536C-33.803,5.542 -32.358,3.191 -30.743,1.624C-24.501,-5.189 -12.834,-4.899 -6.946,-12C-5.92,-15.538 -5.402,-19.607 -5.782,-23.276C-6.682,-25.063 -6.707,-26.936 -5.645,-28.697C1.105,-40.006 0.465,-47.76 0,-60.399" style="fill:rgb(3,4,4);fill-rule:nonzero;"/>
                </g>
                <g transform="matrix(1,0,0,1,233.701,224.899)">
                    <path d="M0,31.204C-7.395,31.204 -14.211,29.761 -19.712,27.03L-20.195,26.79L-20.617,26.453C-25.794,22.302 -30.466,16.351 -33.773,9.696L-36.259,4.695L-31.015,2.776C-26.054,0.96 -20.952,0 -16.261,0C-8.91,0 -2.496,2.334 2.317,6.755C4.264,7.908 11.501,7.976 15.874,8.017C25.694,8.11 34.204,8.19 37.345,13.998C37.662,14.463 38.015,14.938 38.371,15.422C39.575,17.055 40.94,18.905 41.771,21.06L43.608,25.833L38.796,27.563C38.049,27.832 37.239,27.968 36.39,27.968L36.389,27.968C33.815,27.968 31.122,26.682 28.958,25.648C28.414,25.389 27.799,25.095 27.531,24.996L27.302,24.911L27.081,24.804C25.671,24.12 24.399,23.787 23.194,23.787C20.785,23.787 18.44,25.113 15.472,26.791C13.063,28.152 10.334,29.696 7.109,30.689L6.639,30.835L6.148,30.886C4.091,31.097 2.021,31.204 0,31.204" style="fill:rgb(3,4,4);fill-rule:nonzero;"/>
                </g>
                <g transform="matrix(1,0,0,1,204.405,247.517)">
                    <path d="M0,-15.146C2.801,-9.508 6.874,-4.02 11.806,-0.065C18.758,3.385 27.282,4.081 34.933,3.294C43.499,0.654 48.739,-7.075 58.559,-2.312C60.392,-1.634 64.552,0.905 66.4,0.241C65.555,-1.952 63.639,-4.095 62.329,-6.07C59.303,-12.388 34.909,-7.162 28.473,-11.954C20.82,-19.227 9.343,-18.566 0,-15.146" style="fill:rgb(3,4,4);fill-rule:nonzero;"/>
                </g>
                <g transform="matrix(1,0,0,1,270.155,194.103)">
                    <path d="M0,53.018C-5.138,47.426 -5.1,40.525 -5.065,34.436C-5.044,30.499 -5.023,26.78 -6.423,24.12C-7.101,22.829 -8.204,21.554 -9.373,20.205C-9.7,19.827 -10.027,19.449 -10.349,19.068C-10.463,18.933 -10.603,18.774 -10.759,18.595C-12.805,16.254 -15.897,12.716 -15.13,8.72L-14.954,7.802L-14.458,7.01C-13.748,5.876 -12.766,5.03 -11.695,4.389L-11.776,3.935C-11.977,2.812 -12.109,0.641 -10.747,-1.257C-9.849,-2.507 -8.518,-3.322 -6.999,-3.55L-6.63,-3.605L-6.157,-3.612C-4.949,-3.612 -2.78,-3.217 -1.135,-0.73C-0.967,-1.138 -0.748,-1.546 -0.464,-1.943C0.434,-3.193 1.765,-4.008 3.283,-4.236L3.653,-4.292L4.126,-4.299C5.446,-4.299 7.912,-3.828 9.59,-0.673C9.774,-0.376 10.572,0.387 11.101,0.893C11.399,1.178 11.716,1.48 12.034,1.799C17.68,3.325 22.339,7.845 25.286,14.715L26.815,18.283L23.739,20.649C21.579,22.31 20.34,25.245 20.654,27.951C20.708,28.415 20.796,28.884 20.88,29.353C21.217,31.233 21.679,33.809 20.763,36.534L20.595,37.034L20.325,37.488C18.035,41.353 15.051,44.537 12.164,47.617C10.519,49.372 8.964,51.03 7.591,52.752L3.95,57.317L0,53.018Z" style="fill:rgb(3,4,4);fill-rule:nonzero;"/>
                </g>
                <g transform="matrix(1,0,0,1,268.157,222.574)">
                    <path d="M0,-6.68C4.442,1.763 -1.197,13.679 5.679,21.163C9.643,16.194 14.789,11.924 18.022,6.468C18.711,4.418 17.935,2.205 17.686,0.057C17.168,-4.394 19.137,-9.053 22.689,-11.785C20.501,-16.886 16.787,-21.312 11.443,-22.115C10.133,-23.696 8.013,-25.219 7.174,-26.796C6.922,-27.27 6.555,-27.843 6.025,-27.763C5.371,-27.665 5.312,-26.75 5.428,-26.099C5.663,-24.779 5.898,-23.458 6.133,-22.138C4.605,-22.074 2.749,-21.961 0.877,-21.757C-0.437,-23.221 -2.329,-24.642 -3.109,-26.11C-3.361,-26.583 -3.728,-27.156 -4.259,-27.076C-4.913,-26.978 -4.971,-26.063 -4.855,-25.412C-4.59,-23.92 -4.324,-22.427 -4.058,-20.935C-6.047,-20.442 -7.627,-19.758 -8.221,-18.808C-8.572,-16.984 -5.576,-13.868 -4.529,-12.628C-2.922,-10.724 -1.167,-8.905 0,-6.68" style="fill:rgb(3,4,4);fill-rule:nonzero;"/>
                </g>
                <g transform="matrix(1,0,0,1,253.007,204.516)">
                    <path d="M0,32.619C-7.492,32.619 -15.075,31.078 -21.93,28.164L-24.109,27.237L-24.806,24.923C-25.452,22.707 -24.567,20.896 -22.947,17.886C-22.325,16.729 -21.244,14.808 -20.834,14.21C-15.254,6.253 -6.854,0.975 1.665,0.046L1.803,0.034C2.085,0.011 2.354,0 2.613,0C8.827,0 10.283,5.512 10.831,7.587C10.936,7.983 11.038,8.387 11.171,8.777C11.221,8.925 15.612,22.483 11.24,28.918C9.839,30.98 7.723,32.202 5.271,32.369C3.53,32.535 1.758,32.619 0.002,32.619L0,32.619Z" style="fill:rgb(3,4,4);fill-rule:nonzero;"/>
                </g>
                <g transform="matrix(1,0,0,1,236.297,220.427)">
                    <path d="M0,1.125C-0.348,1.632 -3.693,7.469 -3.264,7.651C4.529,10.965 13.158,12.292 21.587,11.472C27.114,11.186 24.309,-2.081 23.148,-5.523C22.268,-8.107 22.283,-11.167 18.917,-10.894C11.327,-10.066 4.303,-5.01 0,1.125" style="fill:rgb(3,4,4);fill-rule:nonzero;"/>
                </g>
                <g transform="matrix(1,0,0,1,226.046,209.117)">
                    <path d="M0,18.725C-2.172,14.444 -1.813,8.481 -1.525,3.689C-1.487,3.06 -1.451,2.463 -1.426,1.913C-1.435,-0.361 -0.624,-2.398 0.925,-3.988C3.151,-6.274 6.646,-7.385 11.605,-7.385C15.249,-7.385 18.754,-6.783 20.092,-6.525L19.254,3.383C15.923,3.458 12.883,8.576 11.154,11.599C11.006,12.051 10.87,12.726 10.739,13.382C10.384,15.162 9.94,17.377 8.537,19.355L3.747,26.11L0,18.725Z" style="fill:rgb(3,4,4);fill-rule:nonzero;"/>
                </g>
                <g transform="matrix(-0.776227,-0.630454,-0.630454,0.776227,225.565,216.258)">
                    <path d="M-9.711,-19.168C-6.274,-17.33 3.978,-11.086 0.095,-6.552C-2.348,-3.252 -6.013,2.473 -9.711,4.122C-9.561,1.812 -7.632,-0.431 -6.972,-2.678C-6.09,-8.009 -5.125,-15.269 -9.711,-19.168" style="fill:rgb(3,4,4);fill-rule:nonzero;"/>
                </g>
                <g transform="matrix(1,0,0,1,213.89,183.682)">
                    <path d="M0,41.229C-0.813,39.432 -1.545,37.844 -2.194,36.434C-5.15,30.01 -6.5,27.078 -6.552,24.187C-6.631,19.733 -3.69,17.606 -0.846,15.549C1.972,13.51 6.226,10.433 12.182,3.139C13.714,1.143 15.977,0 18.409,0C19.707,0 21.008,0.333 22.195,0.964C25.907,2.597 29.602,4.401 33.178,6.328C34.272,6.918 35.532,7.597 36.154,7.6C41.481,7.6 45.39,17.69 45.422,17.792C46.428,20.999 45.076,23.331 43.477,24.444C42.846,24.883 41.784,25.407 40.312,25.407C38.843,25.407 37.298,24.893 35.275,24.166C34.999,24.067 34.76,23.979 34.591,23.924C32.777,23.467 31.195,23.154 29.754,22.969L29.507,22.931C28.478,22.746 27.515,22.655 26.562,22.655C22.282,22.655 18.886,24.568 14.585,26.99C13.233,27.752 11.848,28.532 10.36,29.294C9.388,32.164 9.479,35.932 9.554,39.046L0,41.229Z" style="fill:rgb(3,4,4);fill-rule:nonzero;"/>
                </g>
                <g transform="matrix(1,0,0,1,220.403,201.869)">
                    <path d="M0,7.431C8.302,3.506 13.848,-1.983 23.88,-0.177C25.734,0.062 27.565,0.449 29.376,0.908C30.13,1.099 33.546,2.544 34.108,2.153C35.176,1.411 30.395,-5.587 29.614,-5.587C27.714,-5.596 25.966,-6.556 24.293,-7.457C20.756,-9.363 17.142,-11.125 13.463,-12.736C12.078,-13.548 10.557,-13.245 9.599,-11.957C-8.816,10.64 -13.121,-3.666 -1.959,20.979C-2.066,16.513 -2.127,11.428 0,7.431" style="fill:rgb(3,4,4);fill-rule:nonzero;"/>
                </g>
                <g transform="matrix(1,0,0,1,207.194,185.588)">
                    <path d="M0,71.812C-3.821,70.96 -6.587,68.152 -8.809,65.895C-9.68,65.01 -10.505,64.172 -11.184,63.659C-13.306,62.275 -15.788,61.22 -18.414,60.104C-22.432,58.395 -26.583,56.631 -30.268,53.417C-33.641,51.004 -33.635,46.37 -33.629,41.043C-33.627,39.02 -33.623,35.867 -33.981,34.161L-34.146,34.137L-34.335,33.156L-34.475,32.889L-34.612,32.431C-34.844,31.659 -34.951,30.853 -34.935,30.025L-36.534,21.645C-36.768,20.421 -36.94,18.064 -35.477,16.02C-34.525,14.693 -33.11,13.837 -31.491,13.611C-31.211,13.572 -30.934,13.553 -30.661,13.553C-29.152,13.553 -27.072,14.094 -25.37,16.532C-23.732,15.254 -22.172,14.192 -21.025,13.523L-21.161,13.285C-22.139,11.568 -22.349,9.598 -21.738,7.877C-21.156,6.234 -19.918,4.972 -18.252,4.321C-17.514,4.033 -16.74,3.887 -15.951,3.887C-14.321,3.887 -13.045,4.504 -12.258,5.002L-9.4,-2.245L-3.997,4.032C-3.146,5.022 -2.156,5.726 -1.108,6.47C1.678,8.45 5.844,11.411 4.55,19.145C4.907,22.919 6.136,26.741 7.433,30.775C8.242,33.296 9.08,35.903 9.723,38.58L10.784,43.004L-1.773,47.301C-1.197,49.361 -0.675,51.606 -0.181,54.132C0.39,56.133 1.514,57.904 2.81,59.947C3.754,61.436 4.731,62.977 5.592,64.76L10.075,74.057L0,71.812Z" style="fill:rgb(3,4,4);fill-rule:nonzero;"/>
                </g>
                <g transform="matrix(1,0,0,1,177.289,230.112)">
                    <path d="M0,-14.82C0.002,-14.82 0.004,-14.82 0.005,-14.819C-0.058,-14.366 -0.039,-13.934 0.083,-13.53C2.559,-8.8 -0.083,3.279 2.698,4.926C8.146,9.82 15.634,11.101 21.584,15.034C24.515,17.169 27.33,21.593 30.993,22.409C29.055,18.389 26.068,15.261 24.854,10.755C24.144,7.09 23.281,3.527 22.034,0.119C22.16,-0.411 22.75,-0.665 23.265,-0.841C27.099,-2.153 30.933,-3.465 34.766,-4.777C33.101,-11.717 29.915,-18.493 29.419,-25.633C30.941,-33.076 26.092,-32.612 22.118,-37.229C21.523,-35.719 20.739,-34.373 19.826,-33.148C18.105,-33.719 16.342,-34.271 15.32,-35.05C14.846,-35.411 14.186,-35.824 13.473,-35.545C12.594,-35.202 12.756,-34.298 13.088,-33.714C13.959,-32.187 14.829,-30.661 15.7,-29.134C14.416,-28.216 13.024,-27.414 11.519,-26.75C9.865,-25.805 6.73,-23.566 4.143,-21.042C2.772,-22.262 1.404,-23.475 0.697,-24.714C0.349,-25.325 -0.159,-26.063 -0.893,-25.96C-1.797,-25.834 -1.878,-24.655 -1.718,-23.815C-1.145,-20.817 -0.573,-17.818 0,-14.82" style="fill:rgb(3,4,4);fill-rule:nonzero;"/>
                </g>
                <g transform="matrix(1,0,0,1,283.166,312.167)">
                    <path d="M0,7.004L9.857,7.004L7.574,-0.778C6.589,-4.305 5.499,-7.937 5.084,-10.219L4.877,-10.219C4.41,-8.041 3.32,-4.15 2.386,-0.933L0,7.004ZM9.701,-14.681L21.01,21.685L14.214,21.685L11.465,12.451L-1.608,12.451L-4.358,21.685L-10.894,21.685L0.363,-14.681L9.701,-14.681Z" style="fill:white;fill-rule:nonzero;"/>
                </g>
                <g transform="matrix(1,0,0,1,313.151,321.973)">
                    <path d="M0,-17.016L6.381,-17.016L6.38,11.88L0,11.88L0,-17.016ZM3.009,-28.896C5.343,-28.896 7.003,-27.184 7.003,-24.85C7.003,-22.723 5.343,-21.063 3.009,-21.063C0.882,-21.063 -0.83,-22.723 -0.83,-24.85C-0.83,-27.184 0.882,-28.896 3.009,-28.896" style="fill:white;fill-rule:nonzero;"/>
                </g>
                <g transform="matrix(1,0,0,1,271.358,156.185)">
                    <path d="M0,50.009L-8.647,24.102L-13.595,21.631L-20.529,0.857L-17.96,0L-11.381,19.71L-6.433,22.181L2.569,49.151L0,50.009Z" style="fill:white;fill-rule:nonzero;"/>
                </g>
                <g transform="matrix(1,0,0,1,173.172,215.859)">
                    <path d="M0,32.389L-7.158,10.945L-12.105,8.474L-14.647,0.858L-12.078,0L-9.891,6.552L-4.944,9.024L2.569,31.531L0,32.389Z" style="fill:white;fill-rule:nonzero;"/>
                </g>
                <g transform="matrix(1,0,0,1,285.323,173.62)">
                    <path d="M0,36.934L-7.513,14.426L-5.042,9.479L-7.919,0.858L-5.35,0L-2.117,9.685L-4.589,14.633L2.569,36.076L0,36.934Z" style="fill:white;fill-rule:nonzero;"/>
                </g>
                <g transform="matrix(-0.316608,-0.948557,-0.948557,0.316608,229.672,159.638)">
                    <rect x="-19.506" y="14.053" width="31.582" height="2.708" style="fill:white;"/>
                </g>
                <g transform="matrix(-0.316615,-0.948554,-0.948554,0.316615,209.095,141.201)">
                    <rect x="-21.173" y="15.254" width="34.114" height="2.708" style="fill:white;"/>
                </g>
                <g transform="matrix(1,0,0,1,194.331,170.435)">
                    <path d="M0,39.055L-6.038,20.966L-15.568,12.211L-19.358,0.858L-16.789,0L-13.221,10.69L-3.69,19.445L2.569,38.197L0,39.055Z" style="fill:white;fill-rule:nonzero;"/>
                </g>
                <g transform="matrix(-0.316591,-0.948562,-0.948562,0.316591,307.61,193.011)">
                    <rect x="-4.698" y="3.384" width="9.087" height="2.708" style="fill:white;"/>
                </g>
                <g transform="matrix(-0.316637,-0.948547,-0.948547,0.316637,238.985,192.09)">
                    <rect x="-4.992" y="3.595" width="9.534" height="2.709" style="fill:white;"/>
                </g>
                <g transform="matrix(-0.316605,-0.948557,-0.948557,0.316605,174.05,241.822)">
                    <rect x="-11.268" y="8.118" width="19.068" height="2.708" style="fill:white;"/>
                </g>
                <g transform="matrix(1,0,0,1,251.671,156.209)">
                    <path d="M0,-1.974C-0.112,-1.974 -0.224,-1.956 -0.333,-1.92C-0.598,-1.831 -0.813,-1.644 -0.939,-1.394C-1.064,-1.143 -1.084,-0.859 -0.995,-0.594C-0.906,-0.328 -0.72,-0.113 -0.469,0.012C-0.219,0.137 0.065,0.157 0.331,0.069C0.596,-0.02 0.811,-0.207 0.936,-0.457C1.061,-0.708 1.082,-0.992 0.993,-1.257C0.904,-1.523 0.718,-1.738 0.467,-1.863C0.32,-1.937 0.16,-1.974 0,-1.974M-0.005,2.833C-0.579,2.833 -1.15,2.699 -1.68,2.435C-2.577,1.987 -3.247,1.215 -3.564,0.264C-3.882,-0.688 -3.81,-1.706 -3.362,-2.604C-2.913,-3.502 -2.142,-4.171 -1.19,-4.489C-0.238,-4.807 0.78,-4.734 1.677,-4.286C2.575,-3.838 3.244,-3.067 3.562,-2.115C3.88,-1.163 3.808,-0.145 3.359,0.753C2.911,1.651 2.14,2.32 1.188,2.638C0.797,2.768 0.396,2.833 -0.005,2.833" style="fill:white;fill-rule:nonzero;"/>
                </g>
                <g transform="matrix(1,0,0,1,210.526,151.867)">
                    <path d="M0,-1.973C-0.11,-1.973 -0.221,-1.956 -0.331,-1.919C-0.597,-1.83 -0.812,-1.644 -0.937,-1.393C-1.062,-1.143 -1.082,-0.859 -0.993,-0.593C-0.905,-0.328 -0.718,-0.113 -0.467,0.013C-0.217,0.138 0.067,0.158 0.332,0.069C0.598,-0.02 0.813,-0.206 0.938,-0.457C1.063,-0.707 1.083,-0.991 0.995,-1.257C0.848,-1.695 0.439,-1.973 0,-1.973M-0.003,2.833C-0.578,2.833 -1.149,2.7 -1.678,2.435C-2.575,1.987 -3.245,1.216 -3.562,0.264C-3.88,-0.687 -3.808,-1.706 -3.36,-2.603C-2.911,-3.501 -2.14,-4.17 -1.189,-4.488C-0.236,-4.806 0.782,-4.734 1.679,-4.286C2.577,-3.837 3.246,-3.066 3.564,-2.115C3.881,-1.163 3.81,-0.144 3.361,0.753C2.913,1.651 2.142,2.32 1.19,2.638C0.799,2.769 0.397,2.833 -0.003,2.833" style="fill:white;fill-rule:nonzero;"/>
                </g>
                <g transform="matrix(1,0,0,1,304.282,200.53)">
                    <path d="M0,0.787C0.183,1.335 0.778,1.632 1.326,1.449C1.591,1.36 1.806,1.174 1.932,0.923C2.057,0.673 2.077,0.389 1.988,0.123C1.899,-0.142 1.713,-0.357 1.462,-0.482C1.212,-0.607 0.928,-0.628 0.662,-0.539C0.114,-0.356 -0.183,0.239 0,0.787M0.997,4.212C-0.576,4.212 -2.045,3.216 -2.569,1.645L-2.569,1.644C-3.225,-0.32 -2.16,-2.452 -0.195,-3.108C0.757,-3.425 1.775,-3.354 2.673,-2.905C3.57,-2.457 4.24,-1.686 4.557,-0.734C4.875,0.218 4.803,1.236 4.355,2.134C3.906,3.031 3.135,3.701 2.183,4.018C1.79,4.149 1.39,4.212 0.997,4.212" style="fill:white;fill-rule:nonzero;"/>
                </g>
                <g transform="matrix(1,0,0,1,300.362,188.449)">
                    <path d="M0,1.125C0.183,1.673 0.778,1.971 1.326,1.787C1.874,1.604 2.171,1.01 1.988,0.461C1.805,-0.087 1.21,-0.383 0.662,-0.201C0.397,-0.112 0.182,0.074 0.057,0.325C-0.068,0.575 -0.089,0.86 0,1.125M0.997,4.55C-0.575,4.55 -2.044,3.554 -2.569,1.983C-2.887,1.031 -2.815,0.012 -2.366,-0.885C-1.918,-1.783 -1.147,-2.452 -0.195,-2.77C1.77,-3.425 3.901,-2.361 4.557,-0.396C5.213,1.569 4.148,3.701 2.184,4.356C1.79,4.488 1.39,4.55 0.997,4.55" style="fill:white;fill-rule:nonzero;"/>
                </g>
                <g transform="matrix(1,0,0,1,187.769,132.288)">
                    <path d="M0,0.788C0.183,1.336 0.779,1.633 1.326,1.45C1.874,1.267 2.171,0.672 1.988,0.124C1.9,-0.141 1.713,-0.356 1.462,-0.481C1.212,-0.607 0.928,-0.627 0.662,-0.538C0.114,-0.355 -0.183,0.24 0,0.788ZM0.997,4.213C-0.575,4.213 -2.044,3.217 -2.569,1.646C-3.225,-0.319 -2.16,-2.451 -0.195,-3.107C0.757,-3.425 1.775,-3.353 2.673,-2.904C3.57,-2.456 4.24,-1.685 4.557,-0.733C5.213,1.232 4.148,3.364 2.184,4.019C1.791,4.151 1.391,4.213 0.997,4.213" style="fill:white;fill-rule:nonzero;"/>
                </g>
                <g transform="matrix(1,0,0,1,199.555,167.26)">
                    <path d="M0,1.125C0.183,1.673 0.778,1.971 1.326,1.787C1.874,1.604 2.171,1.009 1.988,0.461C1.805,-0.087 1.21,-0.384 0.662,-0.201C0.114,-0.018 -0.183,0.577 0,1.125M0.997,4.55C-0.575,4.55 -2.044,3.554 -2.569,1.983C-3.225,0.018 -2.16,-2.114 -0.195,-2.77C1.77,-3.425 3.901,-2.361 4.557,-0.396C5.213,1.569 4.148,3.701 2.184,4.356C1.79,4.488 1.39,4.55 0.997,4.55" style="fill:white;fill-rule:nonzero;"/>
                </g>
                <g transform="matrix(1,0,0,1,174.511,168.299)">
                    <path d="M0,1.125C0.183,1.673 0.778,1.971 1.326,1.787C1.874,1.604 2.171,1.01 1.988,0.461C1.899,0.196 1.713,-0.019 1.462,-0.144C1.212,-0.269 0.928,-0.29 0.662,-0.201C0.397,-0.112 0.182,0.074 0.056,0.325C-0.069,0.575 -0.089,0.859 0,1.125M0.997,4.55C-0.576,4.55 -2.045,3.554 -2.569,1.983C-2.887,1.031 -2.815,0.012 -2.367,-0.885C-1.918,-1.783 -1.147,-2.452 -0.195,-2.77C1.769,-3.425 3.901,-2.361 4.557,-0.396C5.213,1.569 4.148,3.701 2.183,4.356C1.79,4.488 1.39,4.55 0.997,4.55" style="fill:white;fill-rule:nonzero;"/>
                </g>
                <g transform="matrix(1,0,0,1,195.914,210.88)">
                    <path d="M0,-1.975C-0.112,-1.975 -0.224,-1.957 -0.333,-1.92C-0.881,-1.738 -1.178,-1.143 -0.995,-0.595C-0.906,-0.329 -0.72,-0.114 -0.469,0.011C-0.219,0.136 0.066,0.156 0.331,0.068C0.596,-0.021 0.811,-0.208 0.937,-0.458C1.062,-0.709 1.082,-0.993 0.993,-1.258C0.904,-1.524 0.718,-1.739 0.467,-1.864C0.32,-1.938 0.16,-1.975 0,-1.975M-0.004,2.832C-0.579,2.832 -1.15,2.698 -1.679,2.434C-2.577,1.986 -3.246,1.214 -3.564,0.263C-3.882,-0.689 -3.81,-1.707 -3.361,-2.605C-2.913,-3.503 -2.142,-4.172 -1.19,-4.489C-0.239,-4.807 0.78,-4.735 1.678,-4.287C2.575,-3.839 3.245,-3.068 3.562,-2.116C3.88,-1.164 3.808,-0.146 3.36,0.752C2.911,1.65 2.14,2.319 1.188,2.637C0.798,2.767 0.396,2.832 -0.004,2.832" style="fill:white;fill-rule:nonzero;"/>
                </g>
                <g transform="matrix(1,0,0,1,161.862,236.15)">
                    <path d="M0,-1.975C-0.112,-1.975 -0.224,-1.957 -0.333,-1.92C-0.598,-1.832 -0.813,-1.645 -0.939,-1.395C-1.064,-1.144 -1.084,-0.86 -0.995,-0.595C-0.906,-0.329 -0.72,-0.114 -0.469,0.011C-0.219,0.136 0.065,0.156 0.331,0.068C0.596,-0.021 0.811,-0.208 0.936,-0.458C1.061,-0.709 1.082,-0.993 0.993,-1.258C0.904,-1.524 0.718,-1.739 0.467,-1.864C0.32,-1.938 0.16,-1.975 0,-1.975M-0.005,2.832C-0.579,2.832 -1.15,2.698 -1.68,2.434C-2.577,1.986 -3.246,1.215 -3.564,0.263C-3.882,-0.689 -3.81,-1.707 -3.362,-2.605C-2.913,-3.503 -2.142,-4.172 -1.19,-4.489C-0.239,-4.807 0.78,-4.735 1.677,-4.287C2.575,-3.839 3.244,-3.068 3.562,-2.116C3.88,-1.164 3.808,-0.146 3.359,0.752C2.911,1.65 2.14,2.319 1.188,2.636C0.798,2.767 0.396,2.832 -0.005,2.832" style="fill:white;fill-rule:nonzero;"/>
                </g>
                <g transform="matrix(1,0,0,1,220.713,183.981)">
                    <path d="M0,0.788C0.183,1.336 0.778,1.633 1.326,1.45C1.591,1.361 1.806,1.175 1.931,0.924C2.056,0.674 2.077,0.39 1.988,0.124C1.899,-0.141 1.713,-0.356 1.462,-0.481C1.212,-0.606 0.928,-0.627 0.662,-0.538C0.397,-0.449 0.182,-0.263 0.056,-0.012C-0.069,0.238 -0.089,0.523 0,0.788M0.997,4.213C-0.576,4.213 -2.045,3.217 -2.569,1.646C-2.887,0.694 -2.815,-0.325 -2.367,-1.222C-1.918,-2.12 -1.147,-2.789 -0.195,-3.107C0.756,-3.425 1.775,-3.353 2.673,-2.904C3.57,-2.456 4.24,-1.685 4.557,-0.733C4.875,0.219 4.803,1.237 4.354,2.135C3.906,3.032 3.135,3.702 2.183,4.019C1.79,4.15 1.39,4.213 0.997,4.213" style="fill:white;fill-rule:nonzero;"/>
                </g>
                <g transform="matrix(1,0,0,1,277.929,172.697)">
                    <path d="M0,-1.975C-0.112,-1.975 -0.224,-1.957 -0.333,-1.92C-0.598,-1.832 -0.813,-1.645 -0.938,-1.395C-1.064,-1.144 -1.084,-0.86 -0.995,-0.595C-0.906,-0.329 -0.72,-0.114 -0.469,0.011C-0.219,0.136 0.065,0.157 0.331,0.067C0.879,-0.115 1.176,-0.71 0.993,-1.258C0.904,-1.524 0.718,-1.739 0.467,-1.864C0.32,-1.938 0.16,-1.975 0,-1.975M-0.005,2.832C-0.579,2.832 -1.15,2.698 -1.68,2.434C-2.577,1.986 -3.246,1.214 -3.564,0.263C-4.22,-1.702 -3.155,-3.834 -1.19,-4.49C-0.238,-4.807 0.78,-4.735 1.678,-4.287C2.575,-3.839 3.245,-3.068 3.562,-2.116C4.218,-0.151 3.153,1.981 1.188,2.636C0.798,2.767 0.396,2.832 -0.005,2.832" style="fill:white;fill-rule:nonzero;"/>
                </g>
                <g transform="matrix(1,0,0,1,158.18,213.59)">
                    <path d="M0,1.125C0.183,1.673 0.778,1.97 1.326,1.787C1.591,1.699 1.806,1.512 1.931,1.262C2.056,1.011 2.077,0.727 1.988,0.461C1.899,0.196 1.713,-0.019 1.462,-0.144C1.212,-0.269 0.928,-0.29 0.662,-0.201C0.397,-0.112 0.182,0.074 0.056,0.325C-0.069,0.575 -0.089,0.859 0,1.125M0.997,4.55C-0.576,4.55 -2.045,3.554 -2.569,1.983C-2.887,1.031 -2.815,0.012 -2.367,-0.885C-1.918,-1.783 -1.147,-2.452 -0.195,-2.77C1.77,-3.425 3.901,-2.361 4.557,-0.396C4.875,0.556 4.803,1.574 4.354,2.472C3.906,3.369 3.135,4.039 2.183,4.356C1.79,4.488 1.39,4.55 0.997,4.55" style="fill:white;fill-rule:nonzero;"/>
                </g>
                <g transform="matrix(0,-1,-1,0,233.501,150.561)">
                    <path d="M-2.319,-2.319C-3.6,-2.319 -4.638,-1.281 -4.638,-0C-4.638,1.281 -3.6,2.319 -2.319,2.319C-1.038,2.319 -0,1.281 -0,-0C-0,-1.281 -1.038,-2.319 -2.319,-2.319" style="fill:white;fill-rule:nonzero;"/>
                </g>
                <g transform="matrix(0,-1,-1,0,241.887,167.965)">
                    <path d="M-4.748,-4.748C-7.377,-4.748 -9.509,-2.623 -9.509,-0.001C-9.509,2.621 -7.377,4.748 -4.748,4.748C-2.119,4.748 0.013,2.621 0.013,-0.001C0.013,-2.623 -2.119,-4.748 -4.748,-4.748" style="fill:white;fill-rule:nonzero;"/>
                </g>
                <g transform="matrix(0,-1,-1,0,250.464,178.599)">
                    <path d="M-1.666,-1.666C-2.587,-1.666 -3.334,-0.92 -3.334,0.001C-3.334,0.921 -2.587,1.666 -1.666,1.666C-0.746,1.666 0.001,0.921 0.001,0.001C0.001,-0.92 -0.746,-1.666 -1.666,-1.666" style="fill:white;fill-rule:nonzero;"/>
                </g>
                <g transform="matrix(0,-1,-1,0,205.526,178.395)">
                    <path d="M-3.671,-3.671C-5.699,-3.671 -7.342,-2.027 -7.342,0C-7.342,2.028 -5.699,3.671 -3.671,3.671C-1.643,3.671 0,2.028 0,0C0,-2.027 -1.643,-3.671 -3.671,-3.671" style="fill:white;fill-rule:nonzero;"/>
                </g>
                <g transform="matrix(0,-1,-1,0,194.468,175.98)">
                    <path d="M-1.962,-1.962C-3.046,-1.962 -3.924,-1.084 -3.924,0C-3.924,1.084 -3.046,1.962 -1.962,1.962C-0.878,1.962 0,1.084 0,0C0,-1.084 -0.878,-1.962 -1.962,-1.962" style="fill:white;fill-rule:nonzero;"/>
                </g>
                <g transform="matrix(1,0,0,1,204.798,272.151)">
                    <path d="M0,-4.568C-2.533,-6.356 -5.801,-10.988 -5.661,-14.102C-5.579,-15.923 -0.894,-17.379 -0.894,-17.379C-4.441,-23.681 -22.598,-22.54 -27.559,-28.255C-29.496,-30.042 -32.774,-30.936 -32.774,-30.936L-35.293,-28.382C-36.3,-29.104 -37.197,-29.827 -37.743,-30.561C-38.137,-31.09 -38.711,-31.731 -39.54,-31.641C-40.563,-31.532 -40.654,-30.509 -40.474,-29.782C-40.033,-28.012 -39.592,-26.242 -39.151,-24.472L-43.797,-19.763C-43.797,-19.763 -41.563,4.072 -39.477,7.648C-37.392,11.223 -33.965,12.713 -32.326,13.904C-30.052,14.898 -16.064,26.826 -13.109,27.163C-13.109,27.163 -8.491,21.949 -4.171,20.757C0.149,19.565 4.618,16.139 7.3,15.841C9.981,15.543 3.006,-2.446 0,-4.568" style="fill:white;fill-rule:nonzero;"/>
                </g>
                <g transform="matrix(1,0,0,1,296.214,268.709)">
                    <path d="M0,-33.835C-29.898,-13.721 -32.242,-6.719 -69.956,-10.734C-74.326,-10.486 -88.702,-9.08 -91.415,-6.274C-89.088,-5.452 -85.589,-5.943 -83.031,-5.511C-75.318,-4.361 -68.301,-0.066 -60.317,-0.743C-44.097,0 -27.96,-5.867 -11.883,-1.61C-9.182,-11.591 1.647,-24.466 0,-33.835" style="fill:white;fill-rule:nonzero;"/>
                </g>
                <g transform="matrix(1,0,0,1,257.272,297.089)">
                    <path d="M0,-23.999C-2.427,-23.428 -4.798,-23.792 -7.174,-24.354C-9.571,-24.644 -11.923,-23.719 -14.265,-23.13C-22.596,-20.822 -31.043,-23.71 -37.919,-28.436C-39.608,-29.201 -42.558,-30.043 -44.368,-29.547C-42.937,-25.461 -40.054,-22.034 -38.885,-17.723C-37.838,-13.866 -37.644,-9.612 -35.3,-6.376C-31.082,-1.387 -25.024,1.906 -18.906,3.999C-17.438,4.475 -15.864,4.914 -14.813,6.044C-11.148,3.719 -7.104,1.796 -3.886,-1.142C-2.761,-2.332 -1.991,-3.811 -0.943,-5.068C0.751,-7.098 3.125,-8.496 4.712,-10.61C7.12,-13.818 7.512,-18.397 10.527,-21.041C10.571,-16.372 10.616,-11.704 10.66,-7.036C16.988,-11.905 22.122,-18.315 25.494,-25.553C16.972,-25.782 8.431,-25.261 0,-23.999" style="fill:white;fill-rule:nonzero;"/>
                </g>
                <g transform="matrix(1,0,0,1,321.279,276.609)">
                    <path d="M0,-60.399C-2.732,-60.305 -5.487,-60.315 -8.246,-60.342C-9.078,-61.535 -10.379,-62.688 -10.902,-63.88C-11.062,-64.244 -11.294,-64.684 -11.63,-64.623C-12.045,-64.548 -12.082,-63.844 -12.009,-63.344C-11.863,-62.354 -11.718,-61.365 -11.573,-60.375C-11.906,-60.378 -12.24,-60.382 -12.573,-60.385C-13.706,-62.266 -16.449,-64.04 -17.432,-65.889C-17.684,-66.363 -18.051,-66.935 -18.582,-66.856C-19.236,-66.757 -19.294,-65.843 -19.178,-65.192C-18.892,-63.584 -18.606,-61.976 -18.32,-60.368C-20.788,-60.325 -23.243,-60.223 -25.671,-59.99C-27.543,-56.725 -30.823,-56.609 -32.738,-53.887C-7.432,-51.833 -22.285,-55.567 -21.984,-34.614C-21.269,-27.612 -24.749,-28.821 -24.899,-24.497C-25.045,-22.07 -24.141,-19.709 -24.146,-17.322C-26.706,-11.773 -30.48,-6.73 -33.474,-1.372C-34.621,0.529 -37.085,4.283 -35.857,6.536C-33.803,5.542 -32.358,3.191 -30.743,1.624C-24.501,-5.189 -12.834,-4.899 -6.946,-12C-5.92,-15.538 -5.402,-19.607 -5.782,-23.276C-6.682,-25.063 -6.707,-26.936 -5.645,-28.697C1.105,-40.006 0.465,-47.76 0,-60.399" style="fill:white;fill-rule:nonzero;"/>
                </g>
                <g transform="matrix(1,0,0,1,204.405,247.517)">
                    <path d="M0,-15.146C2.801,-9.508 6.874,-4.02 11.806,-0.065C18.758,3.385 27.282,4.081 34.933,3.294C43.499,0.654 48.739,-7.075 58.559,-2.312C60.392,-1.634 64.552,0.905 66.4,0.241C65.555,-1.952 63.639,-4.095 62.329,-6.07C59.303,-12.388 34.909,-7.162 28.473,-11.954C20.82,-19.227 9.343,-18.566 0,-15.146" style="fill:white;fill-rule:nonzero;"/>
                </g>
                <g transform="matrix(1,0,0,1,268.157,222.574)">
                    <path d="M0,-6.68C4.442,1.763 -1.197,13.679 5.679,21.163C9.643,16.194 14.789,11.924 18.022,6.468C18.711,4.418 17.935,2.205 17.686,0.057C17.168,-4.394 19.137,-9.053 22.689,-11.785C20.501,-16.886 16.787,-21.312 11.443,-22.115C10.133,-23.696 8.013,-25.219 7.174,-26.796C6.922,-27.27 6.555,-27.843 6.025,-27.763C5.371,-27.665 5.312,-26.75 5.428,-26.099C5.663,-24.779 5.898,-23.458 6.133,-22.138C4.605,-22.074 2.749,-21.961 0.877,-21.757C-0.437,-23.221 -2.329,-24.642 -3.109,-26.11C-3.361,-26.583 -3.728,-27.156 -4.259,-27.076C-4.913,-26.978 -4.971,-26.063 -4.855,-25.412C-4.59,-23.92 -4.324,-22.427 -4.058,-20.935C-6.047,-20.442 -7.627,-19.758 -8.221,-18.808C-8.572,-16.984 -5.576,-13.868 -4.529,-12.628C-2.922,-10.724 -1.167,-8.905 0,-6.68" style="fill:white;fill-rule:nonzero;"/>
                </g>
                <g transform="matrix(1,0,0,1,236.297,220.427)">
                    <path d="M0,1.125C-0.348,1.632 -3.693,7.469 -3.264,7.651C4.529,10.965 13.158,12.292 21.587,11.472C27.114,11.186 24.309,-2.081 23.148,-5.523C22.268,-8.107 22.283,-11.167 18.917,-10.894C11.327,-10.066 4.303,-5.01 0,1.125" style="fill:white;fill-rule:nonzero;"/>
                </g>
                <g transform="matrix(-0.776227,-0.630454,-0.630454,0.776227,225.565,216.258)">
                    <path d="M-9.711,-19.168C-6.274,-17.33 3.978,-11.086 0.095,-6.552C-2.348,-3.252 -6.013,2.473 -9.711,4.122C-9.561,1.812 -7.632,-0.431 -6.972,-2.678C-6.09,-8.009 -5.125,-15.269 -9.711,-19.168" style="fill:white;fill-rule:nonzero;"/>
                </g>
                <g transform="matrix(1,0,0,1,220.403,201.869)">
                    <path d="M0,7.431C8.302,3.506 13.848,-1.983 23.88,-0.177C25.734,0.062 27.565,0.449 29.376,0.908C30.13,1.099 33.546,2.544 34.108,2.153C35.176,1.411 30.395,-5.587 29.614,-5.587C27.714,-5.596 25.966,-6.556 24.293,-7.457C20.756,-9.363 17.142,-11.125 13.463,-12.736C12.078,-13.548 10.557,-13.245 9.599,-11.957C-8.816,10.64 -13.121,-3.666 -1.959,20.979C-2.066,16.513 -2.127,11.428 0,7.431" style="fill:white;fill-rule:nonzero;"/>
                </g>
                <g transform="matrix(1,0,0,1,177.289,230.112)">
                    <path d="M0,-14.82C0.002,-14.82 0.004,-14.82 0.005,-14.819C-0.058,-14.366 -0.039,-13.934 0.083,-13.53C2.559,-8.8 -0.083,3.279 2.698,4.926C8.146,9.82 15.634,11.101 21.584,15.034C24.515,17.169 27.33,21.593 30.993,22.409C29.055,18.389 26.068,15.261 24.854,10.755C24.144,7.09 23.281,3.527 22.034,0.119C22.16,-0.411 22.75,-0.665 23.265,-0.841C27.099,-2.153 30.933,-3.465 34.766,-4.777C33.101,-11.717 29.915,-18.493 29.419,-25.633C30.941,-33.076 26.092,-32.612 22.118,-37.229C21.523,-35.719 20.739,-34.373 19.826,-33.148C18.105,-33.719 16.342,-34.271 15.32,-35.05C14.846,-35.411 14.186,-35.824 13.473,-35.545C12.594,-35.202 12.756,-34.298 13.088,-33.714C13.959,-32.187 14.829,-30.661 15.7,-29.134C14.416,-28.216 13.024,-27.414 11.519,-26.75C9.865,-25.805 6.73,-23.566 4.143,-21.042C2.772,-22.262 1.404,-23.475 0.697,-24.714C0.349,-25.325 -0.159,-26.063 -0.893,-25.96C-1.797,-25.834 -1.878,-24.655 -1.718,-23.815C-1.145,-20.817 -0.573,-17.818 0,-14.82" style="fill:white;fill-rule:nonzero;"/>
                </g>
            </g>
        </g>
    </g>
</svg>
