<?xml version="1.0" encoding="UTF-8" standalone="no"?>
<!DOCTYPE svg PUBLIC "-//W3C//DTD SVG 1.1//EN" "http://www.w3.org/Graphics/SVG/1.1/DTD/svg11.dtd">
<svg width="100%" height="100%" viewBox="0 0 2658 1034" version="1.1" xmlns="http://www.w3.org/2000/svg" xmlns:xlink="http://www.w3.org/1999/xlink" xml:space="preserve" xmlns:serif="http://www.serif.com/" style="fill-rule:evenodd;clip-rule:evenodd;stroke-linejoin:round;stroke-miterlimit:2;">
    <g transform="matrix(1,0,0,1,-5436.73,-1586.78)">
        <g id="Page-2" serif:id="Page 2" transform="matrix(8.33333,0,0,8.33333,4687.5,0)">
            <rect x="0" y="0" width="500" height="500" style="fill:none;"/>
            <g id="Layer-1" serif:id="Layer 1">
                <g transform="matrix(1,0,0,1,203.121,264.677)">
                    <path d="M0,18.397C-0.307,19.93 -1.897,26.306 -2.437,27.957L-31.634,27.957L-31.634,26.047C-26.358,25.569 -25.993,25.201 -25.993,20.408L-25.993,-1.835C-25.993,-6.806 -26.662,-7.131 -30.716,-7.496L-30.716,-9.445L-12.398,-9.445C-6.579,-9.445 -4.484,-9.502 -3.72,-9.56C-3.662,-8.382 -3.393,-3.805 -3.163,-0.419L-5.227,-0.131C-5.745,-2.088 -6.581,-4.044 -7.439,-5.14C-8.434,-6.553 -9.383,-6.918 -12.499,-6.918L-16.844,-6.918C-18.889,-6.918 -19.08,-6.783 -19.08,-4.927L-19.08,7.34L-13.179,7.34C-9.574,7.34 -9.098,6.477 -8.297,2.452L-6.214,2.452L-6.214,14.941L-8.297,14.941C-9.155,10.723 -9.616,10.074 -13.237,10.074L-19.08,10.074L-19.08,20.514C-19.08,24.505 -18.562,25.411 -15.235,25.468L-10.707,25.468C-7.384,25.468 -6.622,25.026 -5.356,23.492C-4.038,21.984 -2.867,19.775 -1.987,17.899L0,18.397Z" style="fill:rgb(3,4,5);fill-rule:nonzero;"/>
                </g>
                <g transform="matrix(1,0,0,1,222.788,266.323)">
                    <path d="M0,26.311L0,24.475C2.741,24.13 2.974,23.84 2.974,19.889L2.974,10.171C2.974,6.105 1.159,4.336 -1.477,4.336C-3.276,4.336 -4.885,5.193 -6.518,6.506L-6.518,20.269C-6.518,23.94 -6.247,24.13 -3.528,24.475L-3.528,26.311L-16.553,26.311L-16.553,24.475C-13.28,23.998 -12.935,23.88 -12.935,20.12L-12.935,8.191C-12.935,4.638 -13.374,4.466 -16.106,3.948L-16.106,2.227C-12.951,1.805 -9.385,1.056 -6.444,0C-6.48,0.987 -6.518,2.941 -6.518,4.285C-5.367,3.479 -4.139,2.616 -2.755,1.75C-1.069,0.714 0.164,0.173 1.834,0.173C6.474,0.173 9.388,3.568 9.388,9.336L9.388,20.232C9.388,23.92 9.733,24.093 12.697,24.475L12.697,26.311L0,26.311Z" style="fill:rgb(3,4,5);fill-rule:nonzero;"/>
                </g>
                <g transform="matrix(1,0,0,1,249.527,304.879)">
                    <path d="M0,-36.377C-2.064,-36.377 -4.029,-34.168 -4.029,-29.846C-4.029,-25.712 -2.366,-22.51 0.502,-22.51C2.845,-22.55 4.454,-24.829 4.454,-29.153C4.454,-33.08 2.925,-36.377 0,-36.377M0.874,-11.255C-2.02,-11.255 -3.396,-10.91 -4.32,-10.122C-5.52,-9.135 -6.335,-7.782 -6.335,-6.413C-6.335,-3.323 -3.317,-0.964 1.45,-0.964C6.244,-0.964 9.128,-3.297 9.128,-6.606C9.128,-8.675 7.908,-10.116 6.184,-10.656C4.671,-11.14 3.106,-11.255 0.874,-11.255M-0.036,-20.445C-6.173,-20.445 -10.493,-23.874 -10.493,-29.133C-10.493,-35.468 -4.547,-38.443 0.389,-38.443C2.623,-38.443 4.561,-37.963 6.548,-36.967C9.045,-36.967 12.91,-37.39 14.41,-37.793L14.717,-37.312C14.371,-36.317 13.563,-34.519 12.587,-33.926C11.649,-33.926 9.939,-34.156 9.133,-34.214C10.035,-33.077 10.613,-31.46 10.613,-29.314C10.613,-23.379 5.361,-20.445 -0.036,-20.445M-2.799,-21.02C-3.657,-20.225 -4.136,-19.357 -4.136,-18.741C-4.136,-17.78 -3.084,-16.592 -0.757,-16.592C1.187,-16.592 3.826,-16.612 5.726,-16.612C9.295,-16.612 14.275,-15.254 14.275,-9.596C14.275,-3.275 6.639,2.066 -1.014,2.066C-8.19,2.066 -11.625,-1.657 -11.666,-4.903C-11.666,-6.243 -11.148,-7.225 -10.04,-8.107C-8.629,-9.241 -6.869,-10.541 -5.584,-11.428C-7.804,-12.19 -9.114,-13.402 -9.901,-14.61C-10.528,-15.51 -10.813,-16.808 -10.739,-17.533C-8.215,-18.563 -5.962,-20.249 -4.846,-21.653L-2.799,-21.02Z" style="fill:rgb(3,4,5);fill-rule:nonzero;"/>
                </g>
                <g transform="matrix(1,0,0,1,272.719,285.148)">
                    <path d="M0,-22.985C-1.985,-22.985 -3.758,-24.685 -3.758,-26.707C-3.758,-28.886 -1.985,-30.471 0.058,-30.471C2.119,-30.471 3.78,-28.886 3.78,-26.707C3.78,-24.685 2.119,-22.985 0,-22.985M-6.469,7.486L-6.469,5.65C-3.18,5.268 -2.815,5.018 -2.815,0.992L-2.815,-10.449C-2.815,-14.204 -3.062,-14.434 -6.028,-14.86L-6.028,-16.578C-2.626,-17.02 0.677,-17.769 3.602,-18.73L3.602,0.992C3.602,4.905 3.892,5.268 7.371,5.65L7.371,7.486L-6.469,7.486Z" style="fill:rgb(3,4,5);fill-rule:nonzero;"/>
                </g>
                <g transform="matrix(1,0,0,1,299.373,266.323)">
                    <path d="M0,26.311L0,24.475C2.738,24.13 2.971,23.84 2.971,19.889L2.971,10.171C2.971,6.105 1.159,4.336 -1.48,4.336C-3.278,4.336 -4.885,5.193 -6.521,6.506L-6.521,20.269C-6.521,23.94 -6.25,24.13 -3.528,24.475L-3.528,26.311L-16.556,26.311L-16.556,24.475C-13.28,23.998 -12.935,23.88 -12.935,20.12L-12.935,8.191C-12.935,4.638 -13.376,4.466 -16.109,3.948L-16.109,2.227C-12.954,1.805 -9.385,1.056 -6.444,0C-6.483,0.987 -6.521,2.941 -6.521,4.285C-5.37,3.479 -4.142,2.616 -2.757,1.75C-1.072,0.714 0.164,0.173 1.831,0.173C6.472,0.173 9.388,3.568 9.388,9.336L9.388,20.232C9.388,23.92 9.733,24.093 12.697,24.475L12.697,26.311L0,26.311Z" style="fill:rgb(3,4,5);fill-rule:nonzero;"/>
                </g>
                <g transform="matrix(1,0,0,1,327.28,291.026)">
                    <path d="M0,-22.231C-2.42,-22.231 -4.599,-19.607 -5.107,-15.021C-2.445,-15.059 0.104,-15.096 2.864,-15.194C3.75,-15.231 4.095,-15.407 4.095,-16.345C4.153,-19.282 2.588,-22.231 0,-22.231M10.273,-3.769C6.702,1.208 2.3,2.299 0.085,2.299C-7.384,2.299 -11.718,-3.418 -11.718,-10.185C-11.718,-14.172 -9.999,-18.022 -7.604,-20.442C-5.074,-23.071 -1.872,-24.53 1.233,-24.53C6.65,-24.53 10.523,-19.99 10.485,-15.312C10.465,-14.273 10.367,-13.456 9.596,-13.264C8.484,-12.996 0.63,-12.553 -5.394,-12.323C-5.304,-5.659 -1.445,-2.532 2.678,-2.532C4.961,-2.532 7.184,-3.398 9.276,-5.242L10.273,-3.769Z" style="fill:rgb(3,4,5);fill-rule:nonzero;"/>
                </g>
                <g transform="matrix(1,0,0,1,353.632,291.026)">
                    <path d="M0,-22.231C-2.42,-22.231 -4.599,-19.607 -5.107,-15.021C-2.445,-15.059 0.104,-15.096 2.864,-15.194C3.75,-15.231 4.095,-15.407 4.095,-16.345C4.153,-19.282 2.588,-22.231 0,-22.231M10.273,-3.769C6.702,1.208 2.3,2.299 0.085,2.299C-7.384,2.299 -11.718,-3.418 -11.718,-10.185C-11.718,-14.172 -9.999,-18.022 -7.604,-20.442C-5.074,-23.071 -1.872,-24.53 1.233,-24.53C6.65,-24.53 10.523,-19.99 10.485,-15.312C10.465,-14.273 10.367,-13.456 9.596,-13.264C8.484,-12.996 0.63,-12.553 -5.394,-12.323C-5.304,-5.659 -1.445,-2.532 2.678,-2.532C4.961,-2.532 7.184,-3.398 9.276,-5.242L10.273,-3.769Z" style="fill:rgb(3,4,5);fill-rule:nonzero;"/>
                </g>
                <g transform="matrix(1,0,0,1,382.06,266.361)">
                    <path d="M0,26.273L-14.506,26.273L-14.506,24.437C-11.255,24.092 -10.948,23.805 -10.948,20.252L-10.948,7.872C-10.948,4.672 -11.178,4.425 -14.103,3.91L-14.103,2.247C-10.797,1.824 -7.796,1.133 -4.531,0L-4.531,6.254C-2.143,2.627 0.049,0.135 2.59,0.135C4.72,0.135 6.189,1.534 6.189,3.346C6.189,5.642 4.558,7.132 3.596,7.632C2.873,7.978 2.335,7.771 1.913,7.406C0.976,6.58 0.247,5.78 -0.751,5.78C-1.735,5.78 -3.415,6.89 -4.531,9.339L-4.531,20.231C-4.531,23.805 -4.169,24.017 0,24.437L0,26.273Z" style="fill:rgb(3,4,5);fill-rule:nonzero;"/>
                </g>
                <g transform="matrix(1,0,0,1,405.931,285.376)">
                    <path d="M0,-10.931C-1.335,-14.717 -3.13,-16.719 -6.115,-16.719C-7.867,-16.719 -9.347,-15.467 -9.347,-13.428C-9.347,-11.253 -7.828,-10.14 -4.756,-8.756C0.008,-6.584 2.93,-4.707 2.93,-0.424C2.93,5.169 -2.316,7.949 -7.16,7.949C-10.153,7.949 -13.097,6.878 -14.306,6.262C-14.558,4.818 -15.076,1.13 -15.268,-0.844L-13.45,-1.169C-12.302,2.476 -10.062,5.73 -6.222,5.73C-4.035,5.73 -2.681,4.346 -2.681,2.416C-2.681,0.35 -3.785,-0.973 -7.171,-2.619C-11.049,-4.501 -14.591,-6.454 -14.591,-11.008C-14.591,-15.433 -10.912,-18.88 -5.055,-18.88C-2.412,-18.88 -0.345,-18.304 0.918,-18.057C1.091,-16.564 1.568,-12.901 1.82,-11.408L0,-10.931Z" style="fill:rgb(3,4,5);fill-rule:nonzero;"/>
                </g>
                <g transform="matrix(1,1.40276e-05,1.40276e-05,-1,125.551,314.412)">
                    <path d="M0,0C-19.685,-0 -35.644,15.958 -35.643,35.644C-35.643,55.33 -19.685,71.288 0,71.288C19.685,71.288 35.644,55.33 35.644,35.644C35.644,15.959 19.686,0 0,0" style="fill:rgb(3,4,4);fill-rule:nonzero;"/>
                </g>
                <g transform="matrix(1,0,0,1,112.877,274.802)">
                    <path d="M0,5.623L7.914,5.623L6.081,-0.625C5.29,-3.457 4.415,-6.373 4.082,-8.205L3.915,-8.205C3.54,-6.456 2.666,-3.332 1.916,-0.75L0,5.623ZM7.789,-11.787L16.868,17.41L11.412,17.41L9.205,9.996L-1.291,9.996L-3.499,17.41L-8.747,17.41L0.292,-11.787L7.789,-11.787Z" style="fill:white;fill-rule:nonzero;"/>
                </g>
                <g transform="matrix(1,0,0,1,136.95,282.674)">
                    <path d="M0,-13.661L5.123,-13.661L5.123,9.538L0,9.538L0,-13.661ZM2.416,-23.199C4.29,-23.199 5.623,-21.825 5.623,-19.95C5.623,-18.243 4.29,-16.91 2.416,-16.91C0.708,-16.91 -0.666,-18.243 -0.666,-19.95C-0.666,-21.825 0.708,-23.199 2.416,-23.199" style="fill:white;fill-rule:nonzero;"/>
                </g>
                <g transform="matrix(1,0,0,1,135.135,211.686)">
                    <path d="M0,1.45C0.691,1.795 1.982,2.086 3.454,2.086C6.524,2.086 11,0.391 11,-7.083C11,-13.487 7.267,-15.758 3.144,-15.758C1.776,-15.758 0.905,-15.47 0.559,-15.142C0.134,-14.776 0,-14.161 0,-13.056L0,1.45ZM3.876,-17.976C8.262,-17.976 11.652,-17.191 14.012,-15.576C16.666,-13.758 18.258,-11.016 18.258,-7.106C18.258,1.257 11.14,4.727 5.224,4.765C4.63,4.765 3.942,4.707 3.558,4.649L0,3.726L0,11.954C0,16.788 0.403,16.977 5.51,17.478L5.51,19.426L-11.943,19.426L-11.943,17.478C-7.406,16.96 -6.951,16.727 -6.951,11.914L-6.951,-10.369C-6.951,-15.303 -7.546,-15.68 -11.943,-16.028L-11.943,-17.976L3.876,-17.976Z" style="fill:rgb(3,4,5);fill-rule:nonzero;"/>
                </g>
                <g transform="matrix(1,0,0,1,168.595,229.622)">
                    <path d="M0,-22.467C-2.837,-22.467 -5.515,-19.596 -5.515,-12.66C-5.515,-5.464 -2.853,-0.058 1.154,-0.058C3.824,-0.058 6.403,-1.937 6.403,-10.156C6.403,-17.711 4.092,-22.467 0,-22.467M0.691,-24.648C8.481,-24.648 13.683,-18.77 13.683,-11.684C13.683,-2.4 6.929,2.181 0.54,2.181C-7.886,2.181 -12.795,-4.319 -12.795,-10.95C-12.795,-19.955 -5.523,-24.648 0.691,-24.648" style="fill:rgb(3,4,5);fill-rule:nonzero;"/>
                </g>
                <g transform="matrix(1,0,0,1,200.378,204.839)">
                    <path d="M0,26.273L-14.506,26.273L-14.506,24.437C-11.255,24.092 -10.948,23.805 -10.948,20.252L-10.948,7.872C-10.948,4.672 -11.178,4.425 -14.105,3.91L-14.105,2.247C-10.797,1.824 -7.798,1.133 -4.531,0L-4.531,6.254C-2.143,2.627 0.049,0.135 2.588,0.135C4.717,0.135 6.187,1.534 6.187,3.346C6.187,5.642 4.556,7.132 3.596,7.632C2.87,7.978 2.335,7.771 1.913,7.406C0.976,6.58 0.247,5.78 -0.751,5.78C-1.735,5.78 -3.415,6.89 -4.531,9.339L-4.531,20.231C-4.531,23.805 -4.169,24.017 0,24.437L0,26.273Z" style="fill:rgb(3,4,5);fill-rule:nonzero;"/>
                </g>
                <g transform="matrix(1,0,0,1,221.985,197.221)">
                    <path d="M0,33.908C-0.979,34.388 -1.9,34.582 -2.363,34.582C-6.532,34.582 -8.936,32.45 -8.936,27.435L-8.936,11.139L-12.718,11.139L-13.025,10.449L-11.395,8.444L-8.936,8.444L-8.936,3.648C-7.28,2.347 -4.865,0.627 -3.174,-0.674L-2.385,-0.335C-2.461,1.521 -2.557,4.672 -2.519,8.444L3.517,8.444C4.035,9.019 3.824,10.621 3.095,11.139L-2.519,11.139L-2.519,25.458C-2.519,30.007 -0.68,30.645 0.556,30.645C1.675,30.645 2.623,30.352 3.58,29.949L4.133,31.819L0,33.908Z" style="fill:rgb(3,4,5);fill-rule:nonzero;"/>
                </g>
                <g transform="matrix(1,0,0,1,227.909,190.414)">
                    <path d="M0,40.698L0,38.862C3.421,38.405 3.657,38.117 3.657,34.432L3.657,7.768C3.657,4.594 3.33,4.249 0.096,3.677L0.096,1.956C3.766,1.573 7.631,0.802 10.071,0L10.071,34.432C10.071,38.23 10.304,38.48 13.746,38.862L13.746,40.698L0,40.698Z" style="fill:rgb(3,4,5);fill-rule:nonzero;"/>
                </g>
                <g transform="matrix(1,0,0,1,258.663,219.495)">
                    <path d="M0,-2.213C-1.118,-1.617 -2.757,-0.821 -3.969,-0.208C-5.893,0.733 -7.028,1.789 -7.028,3.806C-7.028,6.967 -4.764,8.199 -3.297,8.199C-2.25,8.199 -1.003,7.839 0,6.876L0,-2.213ZM4.909,12.308C3.599,12.308 2.333,11.81 1.645,11.139C0.861,10.429 0.477,9.623 0.189,8.849C-2.037,10.328 -4.857,12.308 -6.192,12.308C-10.838,12.308 -13.735,8.613 -13.735,5.006C-13.735,2.036 -12.294,0.494 -9.204,-0.674C-5.77,-1.92 -1.305,-3.341 0,-4.451L0,-6.5C0,-9.874 -1.436,-11.785 -4.092,-11.785C-5.192,-11.785 -5.997,-11.264 -6.535,-10.574C-7.203,-9.693 -7.494,-8.502 -7.976,-6.796C-8.338,-5.464 -9.117,-5.061 -10.169,-5.061C-11.523,-5.061 -13.261,-6.362 -13.261,-7.892C-13.261,-8.848 -12.551,-9.575 -11.288,-10.455C-9.021,-12.001 -5.647,-13.83 -2.404,-14.521C-0.302,-14.521 1.593,-14.003 3.141,-12.892C5.455,-11.166 6.225,-8.911 6.225,-5.956L6.225,4.401C6.225,7.123 7.165,7.854 8.127,7.854C8.744,7.854 9.377,7.641 10.01,7.333L10.624,9.169L4.909,12.308Z" style="fill:rgb(3,4,5);fill-rule:nonzero;"/>
                </g>
                <g transform="matrix(1,0,0,1,287.943,204.801)">
                    <path d="M0,26.311L0,24.475C2.741,24.13 2.974,23.84 2.974,19.889L2.974,10.171C2.974,6.105 1.159,4.336 -1.477,4.336C-3.276,4.336 -4.885,5.193 -6.518,6.506L-6.518,20.269C-6.518,23.94 -6.247,24.13 -3.528,24.475L-3.528,26.311L-16.553,26.311L-16.553,24.475C-13.28,23.998 -12.935,23.88 -12.935,20.12L-12.935,8.191C-12.935,4.638 -13.374,4.466 -16.106,3.948L-16.106,2.227C-12.951,1.805 -9.385,1.056 -6.444,0C-6.48,0.987 -6.518,2.941 -6.518,4.285C-5.367,3.479 -4.139,2.616 -2.755,1.75C-1.069,0.714 0.164,0.173 1.834,0.173C6.474,0.173 9.388,3.568 9.388,9.336L9.388,20.232C9.388,23.92 9.733,24.093 12.697,24.475L12.697,26.311L0,26.311Z" style="fill:rgb(3,4,5);fill-rule:nonzero;"/>
                </g>
                <g transform="matrix(1,0,0,1,322.576,211.913)">
                    <path d="M0,-1.574C-0.874,-3.326 -2.714,-4.471 -4.92,-4.471C-7.047,-4.471 -11.263,-3.041 -11.263,5.282C-11.263,12.618 -7.023,15.703 -4.051,15.76C-2.653,15.76 -1.307,15.286 0,14.399L0,-1.574ZM10.452,17.722C9.13,17.953 4.18,18.643 0,19.926L0,16.448C-1.036,17.119 -2.494,17.961 -3.53,18.632C-5.233,19.656 -6.337,19.889 -6.992,19.889C-11.781,19.889 -18.442,15.547 -18.442,7.155C-18.442,-0.768 -11.46,-6.94 -2.864,-6.94C-2.322,-6.94 -1.022,-6.899 0,-6.606L0,-13.868C0,-17.138 -0.329,-17.366 -4.076,-17.786L-4.076,-19.544C-0.6,-19.947 3.837,-20.715 6.452,-21.5L6.452,12.15C6.452,15.216 6.82,15.545 8.985,15.772L10.452,15.924L10.452,17.722Z" style="fill:rgb(3,4,5);fill-rule:nonzero;"/>
                </g>
            </g>
        </g>
    </g>
</svg>
