<?xml version="1.0" encoding="UTF-8" standalone="no"?>
<!DOCTYPE svg PUBLIC "-//W3C//DTD SVG 1.1//EN" "http://www.w3.org/Graphics/SVG/1.1/DTD/svg11.dtd">
<svg width="100%" height="100%" viewBox="0 0 1997 958" version="1.1" xmlns="http://www.w3.org/2000/svg" xmlns:xlink="http://www.w3.org/1999/xlink" xml:space="preserve" xmlns:serif="http://www.serif.com/" style="fill-rule:evenodd;clip-rule:evenodd;stroke-linejoin:round;stroke-miterlimit:2;">
    <g transform="matrix(1,0,0,1,-3816.1,-153.463)">
        <g transform="matrix(1,0,0,1,2784.61,204.274)">
            <g transform="matrix(300,0,0,300,1191.47,870.338)">
                <path d="M0.224,0.012C0.185,0.012 0.151,0.006 0.122,-0.007C0.093,-0.02 0.071,-0.038 0.056,-0.062C0.041,-0.085 0.033,-0.113 0.033,-0.146C0.033,-0.177 0.04,-0.204 0.054,-0.228C0.068,-0.251 0.09,-0.271 0.119,-0.287C0.148,-0.303 0.184,-0.314 0.227,-0.321L0.394,-0.348L0.394,-0.238L0.254,-0.213C0.233,-0.209 0.216,-0.202 0.205,-0.193C0.194,-0.183 0.188,-0.169 0.188,-0.151C0.188,-0.134 0.194,-0.121 0.207,-0.112C0.22,-0.103 0.235,-0.098 0.254,-0.098C0.279,-0.098 0.3,-0.103 0.319,-0.114C0.338,-0.125 0.352,-0.139 0.363,-0.158C0.373,-0.176 0.378,-0.196 0.378,-0.218L0.378,-0.36C0.378,-0.381 0.37,-0.398 0.354,-0.412C0.337,-0.426 0.315,-0.433 0.287,-0.433C0.26,-0.433 0.237,-0.426 0.217,-0.411C0.196,-0.396 0.181,-0.377 0.172,-0.353L0.052,-0.41C0.063,-0.441 0.08,-0.467 0.103,-0.489C0.126,-0.511 0.154,-0.528 0.187,-0.54C0.22,-0.552 0.255,-0.558 0.294,-0.558C0.34,-0.558 0.381,-0.55 0.416,-0.533C0.451,-0.516 0.479,-0.493 0.499,-0.464C0.518,-0.434 0.528,-0.399 0.528,-0.36L0.528,-0L0.388,-0L0.388,-0.088L0.422,-0.094C0.406,-0.07 0.388,-0.05 0.369,-0.035C0.35,-0.019 0.328,-0.007 0.304,0.001C0.28,0.008 0.253,0.012 0.224,0.012Z" style="fill-rule:nonzero;"/>
            </g>
            <g transform="matrix(300,0,0,300,1366.37,870.338)">
                <rect x="0.055" y="-0.757" width="0.15" height="0.757" style="fill-rule:nonzero;"/>
            </g>
            <g transform="matrix(300,0,0,300,1444.37,870.338)">
                <path d="M0.318,0.006C0.252,0.006 0.201,-0.012 0.165,-0.048C0.128,-0.083 0.11,-0.133 0.11,-0.197L0.11,-0.416L0.018,-0.416L0.018,-0.546L0.023,-0.546C0.051,-0.546 0.073,-0.553 0.088,-0.567C0.102,-0.581 0.11,-0.602 0.11,-0.63L0.11,-0.67L0.26,-0.67L0.26,-0.546L0.388,-0.546L0.388,-0.416L0.26,-0.416L0.26,-0.207C0.26,-0.188 0.263,-0.173 0.27,-0.161C0.277,-0.148 0.287,-0.139 0.301,-0.133C0.315,-0.127 0.332,-0.124 0.353,-0.124C0.358,-0.124 0.363,-0.124 0.369,-0.125C0.375,-0.126 0.381,-0.126 0.388,-0.127L0.388,-0C0.378,0.001 0.367,0.003 0.354,0.004C0.341,0.005 0.329,0.006 0.318,0.006Z" style="fill-rule:nonzero;"/>
            </g>
            <g transform="matrix(300,0,0,300,1570.67,870.338)">
                <path d="M0.318,0.012C0.26,0.012 0.21,-0.001 0.167,-0.027C0.124,-0.052 0.091,-0.087 0.068,-0.13C0.045,-0.173 0.033,-0.221 0.033,-0.274C0.033,-0.329 0.045,-0.377 0.07,-0.42C0.094,-0.463 0.127,-0.496 0.168,-0.521C0.209,-0.546 0.256,-0.558 0.308,-0.558C0.351,-0.558 0.39,-0.551 0.423,-0.538C0.456,-0.524 0.485,-0.505 0.508,-0.48C0.531,-0.455 0.548,-0.427 0.56,-0.395C0.572,-0.362 0.578,-0.327 0.578,-0.289C0.578,-0.278 0.578,-0.268 0.577,-0.258C0.576,-0.247 0.574,-0.238 0.571,-0.231L0.162,-0.231L0.162,-0.341L0.486,-0.341L0.415,-0.289C0.422,-0.318 0.421,-0.343 0.414,-0.366C0.407,-0.388 0.394,-0.405 0.376,-0.419C0.357,-0.432 0.335,-0.438 0.308,-0.438C0.282,-0.438 0.26,-0.432 0.241,-0.419C0.222,-0.406 0.208,-0.388 0.199,-0.363C0.19,-0.338 0.186,-0.308 0.188,-0.273C0.185,-0.242 0.189,-0.215 0.199,-0.192C0.209,-0.169 0.224,-0.151 0.245,-0.138C0.266,-0.125 0.291,-0.118 0.32,-0.118C0.347,-0.118 0.37,-0.123 0.389,-0.134C0.407,-0.145 0.422,-0.159 0.433,-0.178L0.553,-0.121C0.542,-0.094 0.526,-0.071 0.503,-0.051C0.48,-0.031 0.452,-0.016 0.421,-0.005C0.39,0.007 0.355,0.012 0.318,0.012Z" style="fill-rule:nonzero;"/>
            </g>
            <g transform="matrix(300,0,0,300,1753.97,870.338)">
                <path d="M0.055,-0L0.055,-0.546L0.195,-0.546L0.195,-0.415L0.185,-0.434C0.197,-0.48 0.217,-0.511 0.245,-0.528C0.272,-0.544 0.305,-0.552 0.343,-0.552L0.375,-0.552L0.375,-0.422L0.328,-0.422C0.291,-0.422 0.262,-0.411 0.239,-0.389C0.216,-0.366 0.205,-0.335 0.205,-0.294L0.205,-0L0.055,-0Z" style="fill-rule:nonzero;"/>
            </g>
            <g transform="matrix(300,0,0,300,1869.77,870.338)">
                <path d="M0.318,0.012C0.26,0.012 0.21,-0.001 0.167,-0.027C0.124,-0.052 0.091,-0.087 0.068,-0.13C0.045,-0.173 0.033,-0.221 0.033,-0.274C0.033,-0.329 0.045,-0.377 0.07,-0.42C0.094,-0.463 0.127,-0.496 0.168,-0.521C0.209,-0.546 0.256,-0.558 0.308,-0.558C0.351,-0.558 0.39,-0.551 0.423,-0.538C0.456,-0.524 0.485,-0.505 0.508,-0.48C0.531,-0.455 0.548,-0.427 0.56,-0.395C0.572,-0.362 0.578,-0.327 0.578,-0.289C0.578,-0.278 0.578,-0.268 0.577,-0.258C0.576,-0.247 0.574,-0.238 0.571,-0.231L0.162,-0.231L0.162,-0.341L0.486,-0.341L0.415,-0.289C0.422,-0.318 0.421,-0.343 0.414,-0.366C0.407,-0.388 0.394,-0.405 0.376,-0.419C0.357,-0.432 0.335,-0.438 0.308,-0.438C0.282,-0.438 0.26,-0.432 0.241,-0.419C0.222,-0.406 0.208,-0.388 0.199,-0.363C0.19,-0.338 0.186,-0.308 0.188,-0.273C0.185,-0.242 0.189,-0.215 0.199,-0.192C0.209,-0.169 0.224,-0.151 0.245,-0.138C0.266,-0.125 0.291,-0.118 0.32,-0.118C0.347,-0.118 0.37,-0.123 0.389,-0.134C0.407,-0.145 0.422,-0.159 0.433,-0.178L0.553,-0.121C0.542,-0.094 0.526,-0.071 0.503,-0.051C0.48,-0.031 0.452,-0.016 0.421,-0.005C0.39,0.007 0.355,0.012 0.318,0.012Z" style="fill-rule:nonzero;"/>
            </g>
            <g transform="matrix(300,0,0,300,2053.07,870.338)">
                <path d="M0.312,0.012C0.259,0.012 0.211,-0.001 0.169,-0.026C0.127,-0.051 0.094,-0.086 0.07,-0.129C0.045,-0.172 0.033,-0.22 0.033,-0.273C0.033,-0.326 0.045,-0.375 0.07,-0.418C0.095,-0.46 0.128,-0.495 0.17,-0.52C0.212,-0.545 0.259,-0.558 0.311,-0.558C0.351,-0.558 0.387,-0.551 0.418,-0.536C0.448,-0.521 0.473,-0.499 0.491,-0.472L0.468,-0.442L0.468,-0.757L0.618,-0.757L0.618,-0L0.478,-0L0.478,-0.1L0.492,-0.069C0.473,-0.042 0.448,-0.022 0.416,-0.009C0.384,0.005 0.349,0.012 0.312,0.012ZM0.33,-0.123C0.357,-0.123 0.381,-0.129 0.402,-0.142C0.423,-0.155 0.439,-0.172 0.451,-0.195C0.462,-0.218 0.468,-0.244 0.468,-0.273C0.468,-0.302 0.462,-0.328 0.451,-0.351C0.439,-0.374 0.423,-0.391 0.402,-0.404C0.381,-0.417 0.357,-0.423 0.33,-0.423C0.303,-0.423 0.278,-0.417 0.257,-0.404C0.235,-0.391 0.218,-0.373 0.206,-0.351C0.194,-0.328 0.188,-0.302 0.188,-0.273C0.188,-0.244 0.194,-0.218 0.206,-0.195C0.218,-0.172 0.235,-0.155 0.257,-0.142C0.278,-0.129 0.303,-0.123 0.33,-0.123Z" style="fill-rule:nonzero;"/>
            </g>
            <g transform="matrix(300,0,0,300,2254.97,870.338)">
            </g>
            <g transform="matrix(300,0,0,300,2308.97,870.338)">
                <path d="M0.323,0.012C0.268,0.012 0.219,-0.001 0.176,-0.026C0.132,-0.05 0.097,-0.085 0.072,-0.128C0.046,-0.171 0.033,-0.22 0.033,-0.274C0.033,-0.328 0.046,-0.377 0.071,-0.42C0.096,-0.462 0.131,-0.496 0.175,-0.521C0.219,-0.546 0.268,-0.558 0.323,-0.558C0.364,-0.558 0.401,-0.551 0.436,-0.537C0.471,-0.523 0.5,-0.503 0.525,-0.479C0.55,-0.454 0.567,-0.424 0.578,-0.39L0.448,-0.334C0.439,-0.361 0.423,-0.383 0.401,-0.399C0.378,-0.415 0.352,-0.423 0.323,-0.423C0.297,-0.423 0.274,-0.417 0.254,-0.404C0.233,-0.391 0.217,-0.374 0.206,-0.351C0.194,-0.328 0.188,-0.302 0.188,-0.273C0.188,-0.244 0.194,-0.218 0.206,-0.195C0.217,-0.172 0.233,-0.155 0.254,-0.142C0.274,-0.129 0.297,-0.123 0.323,-0.123C0.353,-0.123 0.379,-0.131 0.401,-0.147C0.423,-0.163 0.439,-0.185 0.448,-0.212L0.578,-0.155C0.568,-0.123 0.551,-0.094 0.526,-0.069C0.501,-0.044 0.472,-0.024 0.437,-0.01C0.402,0.005 0.364,0.012 0.323,0.012Z" style="fill-rule:nonzero;"/>
            </g>
            <g transform="matrix(300,0,0,300,2492.27,870.338)">
                <path d="M0.055,-0L0.055,-0.546L0.195,-0.546L0.195,-0.415L0.185,-0.434C0.197,-0.48 0.217,-0.511 0.245,-0.528C0.272,-0.544 0.305,-0.552 0.343,-0.552L0.375,-0.552L0.375,-0.422L0.328,-0.422C0.291,-0.422 0.262,-0.411 0.239,-0.389C0.216,-0.366 0.205,-0.335 0.205,-0.294L0.205,-0L0.055,-0Z" style="fill-rule:nonzero;"/>
            </g>
            <g transform="matrix(300,0,0,300,2608.07,870.338)">
                <path d="M0.224,0.012C0.185,0.012 0.151,0.006 0.122,-0.007C0.093,-0.02 0.071,-0.038 0.056,-0.062C0.041,-0.085 0.033,-0.113 0.033,-0.146C0.033,-0.177 0.04,-0.204 0.054,-0.228C0.068,-0.251 0.09,-0.271 0.119,-0.287C0.148,-0.303 0.184,-0.314 0.227,-0.321L0.394,-0.348L0.394,-0.238L0.254,-0.213C0.233,-0.209 0.216,-0.202 0.205,-0.193C0.194,-0.183 0.188,-0.169 0.188,-0.151C0.188,-0.134 0.194,-0.121 0.207,-0.112C0.22,-0.103 0.235,-0.098 0.254,-0.098C0.279,-0.098 0.3,-0.103 0.319,-0.114C0.338,-0.125 0.352,-0.139 0.363,-0.158C0.373,-0.176 0.378,-0.196 0.378,-0.218L0.378,-0.36C0.378,-0.381 0.37,-0.398 0.354,-0.412C0.337,-0.426 0.315,-0.433 0.287,-0.433C0.26,-0.433 0.237,-0.426 0.217,-0.411C0.196,-0.396 0.181,-0.377 0.172,-0.353L0.052,-0.41C0.063,-0.441 0.08,-0.467 0.103,-0.489C0.126,-0.511 0.154,-0.528 0.187,-0.54C0.22,-0.552 0.255,-0.558 0.294,-0.558C0.34,-0.558 0.381,-0.55 0.416,-0.533C0.451,-0.516 0.479,-0.493 0.499,-0.464C0.518,-0.434 0.528,-0.399 0.528,-0.36L0.528,-0L0.388,-0L0.388,-0.088L0.422,-0.094C0.406,-0.07 0.388,-0.05 0.369,-0.035C0.35,-0.019 0.328,-0.007 0.304,0.001C0.28,0.008 0.253,0.012 0.224,0.012Z" style="fill-rule:nonzero;"/>
            </g>
            <g transform="matrix(300,0,0,300,2779.97,870.338)">
                <path d="M0.121,-0L0.121,-0.416L0.029,-0.416L0.029,-0.546L0.121,-0.546L0.121,-0.554C0.121,-0.597 0.129,-0.634 0.147,-0.664C0.164,-0.694 0.188,-0.717 0.22,-0.733C0.252,-0.749 0.291,-0.757 0.336,-0.757C0.345,-0.757 0.354,-0.756 0.364,-0.756C0.374,-0.755 0.382,-0.753 0.389,-0.752L0.389,-0.624C0.382,-0.625 0.377,-0.626 0.372,-0.627C0.367,-0.627 0.361,-0.627 0.356,-0.627C0.328,-0.627 0.307,-0.621 0.293,-0.609C0.278,-0.596 0.271,-0.578 0.271,-0.554L0.271,-0.546L0.388,-0.546L0.388,-0.416L0.271,-0.416L0.271,-0L0.121,-0Z" style="fill-rule:nonzero;"/>
            </g>
            <g transform="matrix(300,0,0,300,2911.97,870.338)">
                <path d="M0.318,0.006C0.252,0.006 0.201,-0.012 0.165,-0.048C0.128,-0.083 0.11,-0.133 0.11,-0.197L0.11,-0.416L0.018,-0.416L0.018,-0.546L0.023,-0.546C0.051,-0.546 0.073,-0.553 0.088,-0.567C0.102,-0.581 0.11,-0.602 0.11,-0.63L0.11,-0.67L0.26,-0.67L0.26,-0.546L0.388,-0.546L0.388,-0.416L0.26,-0.416L0.26,-0.207C0.26,-0.188 0.263,-0.173 0.27,-0.161C0.277,-0.148 0.287,-0.139 0.301,-0.133C0.315,-0.127 0.332,-0.124 0.353,-0.124C0.358,-0.124 0.363,-0.124 0.369,-0.125C0.375,-0.126 0.381,-0.126 0.388,-0.127L0.388,-0C0.378,0.001 0.367,0.003 0.354,0.004C0.341,0.005 0.329,0.006 0.318,0.006Z" style="fill-rule:nonzero;"/>
            </g>
            <g transform="matrix(300,0,0,300,3038.27,870.338)">
            </g>
        </g>
        <g transform="matrix(1,0,0,1,2618.63,204.274)">
            <g transform="matrix(300,0,0,300,1191.47,870.338)">
                <path d="M0.02,0.12L0.35,-0.705L0.512,-0.705L0.182,0.12L0.02,0.12Z" style="fill:rgb(212,184,74);fill-rule:nonzero;"/>
            </g>
            <g transform="matrix(300,0,0,300,1351.07,870.338)">
            </g>
        </g>
        <g transform="matrix(0.754219,0,0,0.754219,4359.77,-1027.91)">
            <g transform="matrix(0.989446,0,0,1.06982,-1166.52,982.33)">
                <path d="M2210.02,728.18L2210.02,1092.73C2210.02,1193.33 2121.71,1275 2012.94,1275L1618.78,1275C1510.01,1275 1421.7,1193.33 1421.7,1092.73L1421.7,728.18C1421.7,627.581 1510.01,545.907 1618.78,545.907L2012.94,545.907C2121.71,545.907 2210.02,627.581 2210.02,728.18Z"/>
            </g>
            <g transform="matrix(1.07049,0,0,0.900637,8.90861,766.464)">
                <path d="M844.439,1061.99L844.439,1098.1C844.439,1108.06 837.633,1116.15 829.251,1116.15L332.473,1116.15C324.09,1116.15 317.284,1108.06 317.284,1098.1L317.284,1061.99C317.284,1052.03 324.09,1043.94 332.473,1043.94L829.251,1043.94C837.633,1043.94 844.439,1052.03 844.439,1061.99Z" style="fill:rgb(212,184,74);"/>
                <path d="M844.439,1061.99L844.439,1098.1C844.439,1108.06 837.633,1116.15 829.251,1116.15L332.473,1116.15C324.09,1116.15 317.284,1108.06 317.284,1098.1L317.284,1061.99C317.284,1052.03 324.09,1043.94 332.473,1043.94L829.251,1043.94C837.633,1043.94 844.439,1052.03 844.439,1061.99ZM343.088,1074.61L343.088,1085.48L818.635,1085.48L818.635,1074.61L343.088,1074.61Z" style="fill:rgb(212,184,74);"/>
            </g>
            <g transform="matrix(0.199424,0,0,0.900637,285.284,1200.78)">
                <path d="M844.439,1061.99L844.439,1098.1C844.439,1108.06 807.907,1116.15 762.91,1116.15L398.813,1116.15C353.816,1116.15 317.284,1108.06 317.284,1098.1L317.284,1061.99C317.284,1052.03 353.816,1043.94 398.813,1043.94L762.91,1043.94C807.907,1043.94 844.439,1052.03 844.439,1061.99Z" style="fill:rgb(212,184,74);"/>
                <path d="M844.439,1061.99L844.439,1098.1C844.439,1108.06 807.907,1116.15 762.91,1116.15L398.813,1116.15C353.816,1116.15 317.284,1108.06 317.284,1098.1L317.284,1061.99C317.284,1052.03 353.816,1043.94 398.813,1043.94L762.91,1043.94C807.907,1043.94 844.439,1052.03 844.439,1061.99ZM455.795,1074.61L455.795,1085.48L705.928,1085.48L705.928,1074.61L455.795,1074.61Z" style="fill:rgb(212,184,74);"/>
            </g>
            <g transform="matrix(0.805734,0,0,0.900637,161.153,875.263)">
                <path d="M844.439,1061.99L844.439,1098.1C844.439,1108.06 835.397,1116.15 824.26,1116.15L337.463,1116.15C326.326,1116.15 317.284,1108.06 317.284,1098.1L317.284,1061.99C317.284,1052.03 326.326,1043.94 337.463,1043.94L824.26,1043.94C835.397,1043.94 844.439,1052.03 844.439,1061.99Z" style="fill:rgb(82,199,126);"/>
                <path d="M844.439,1061.99L844.439,1098.1C844.439,1108.06 835.397,1116.15 824.26,1116.15L337.463,1116.15C326.326,1116.15 317.284,1108.06 317.284,1098.1L317.284,1061.99C317.284,1052.03 326.326,1043.94 337.463,1043.94L824.26,1043.94C835.397,1043.94 844.439,1052.03 844.439,1061.99ZM351.567,1074.61L351.567,1085.48L810.157,1085.48L810.157,1074.61L351.567,1074.61Z" style="fill:rgb(82,199,126);"/>
            </g>
            <g transform="matrix(0.445418,0,0,0.900637,328.847,983.913)">
                <path d="M844.439,1061.99L844.439,1098.1C844.439,1108.06 828.083,1116.15 807.936,1116.15L353.787,1116.15C333.641,1116.15 317.284,1108.06 317.284,1098.1L317.284,1061.99C317.284,1052.03 333.641,1043.94 353.787,1043.94L807.936,1043.94C828.083,1043.94 844.439,1052.03 844.439,1061.99Z" style="fill:rgb(90,148,212);"/>
                <path d="M844.439,1061.99L844.439,1098.1C844.439,1108.06 828.083,1116.15 807.936,1116.15L353.787,1116.15C333.641,1116.15 317.284,1108.06 317.284,1098.1L317.284,1061.99C317.284,1052.03 333.641,1043.94 353.787,1043.94L807.936,1043.94C828.083,1043.94 844.439,1052.03 844.439,1061.99ZM379.299,1074.61L379.299,1085.48L782.425,1085.48L782.425,1074.61L379.299,1074.61Z" style="fill:rgb(90,148,212);"/>
            </g>
            <g transform="matrix(0.705347,0,0,0.900637,193.004,1092.21)">
                <path d="M844.439,1061.99L844.439,1098.1C844.439,1108.06 834.11,1116.15 821.388,1116.15L340.335,1116.15C327.613,1116.15 317.284,1108.06 317.284,1098.1L317.284,1061.99C317.284,1052.03 327.613,1043.94 340.335,1043.94L821.388,1043.94C834.11,1043.94 844.439,1052.03 844.439,1061.99Z" style="fill:rgb(82,199,126);"/>
                <path d="M844.439,1061.99L844.439,1098.1C844.439,1108.06 834.11,1116.15 821.388,1116.15L340.335,1116.15C327.613,1116.15 317.284,1108.06 317.284,1098.1L317.284,1061.99C317.284,1052.03 327.613,1043.94 340.335,1043.94L821.388,1043.94C834.11,1043.94 844.439,1052.03 844.439,1061.99ZM356.446,1074.61L356.446,1085.48L805.278,1085.48L805.278,1074.61L356.446,1074.61Z" style="fill:rgb(82,199,126);"/>
            </g>
        </g>
    </g>
</svg>
