<?xml version="1.0" encoding="UTF-8" standalone="no"?>
<!DOCTYPE svg PUBLIC "-//W3C//DTD SVG 1.1//EN" "http://www.w3.org/Graphics/SVG/1.1/DTD/svg11.dtd">
<svg width="100%" height="100%" viewBox="0 0 589 589" version="1.1" xmlns="http://www.w3.org/2000/svg" xmlns:xlink="http://www.w3.org/1999/xlink" xml:space="preserve" xmlns:serif="http://www.serif.com/" style="fill-rule:evenodd;clip-rule:evenodd;stroke-linejoin:round;stroke-miterlimit:2;">
    <g transform="matrix(1,0,0,1,-4540.91,-153.463)">
        <g transform="matrix(0.754219,0,0,0.754219,4359.77,-1027.91)">
            <g transform="matrix(0.989446,0,0,1.06982,-1166.52,982.33)">
                <path d="M2210.02,728.18L2210.02,1092.73C2210.02,1193.33 2121.71,1275 2012.94,1275L1618.78,1275C1510.01,1275 1421.7,1193.33 1421.7,1092.73L1421.7,728.18C1421.7,627.581 1510.01,545.907 1618.78,545.907L2012.94,545.907C2121.71,545.907 2210.02,627.581 2210.02,728.18Z"/>
            </g>
            <g transform="matrix(1.07049,0,0,0.900637,8.90861,766.464)">
                <path d="M844.439,1061.99L844.439,1098.1C844.439,1108.06 837.633,1116.15 829.251,1116.15L332.473,1116.15C324.09,1116.15 317.284,1108.06 317.284,1098.1L317.284,1061.99C317.284,1052.03 324.09,1043.94 332.473,1043.94L829.251,1043.94C837.633,1043.94 844.439,1052.03 844.439,1061.99Z" style="fill:rgb(212,184,74);"/>
                <path d="M844.439,1061.99L844.439,1098.1C844.439,1108.06 837.633,1116.15 829.251,1116.15L332.473,1116.15C324.09,1116.15 317.284,1108.06 317.284,1098.1L317.284,1061.99C317.284,1052.03 324.09,1043.94 332.473,1043.94L829.251,1043.94C837.633,1043.94 844.439,1052.03 844.439,1061.99ZM343.088,1074.61L343.088,1085.48L818.635,1085.48L818.635,1074.61L343.088,1074.61Z" style="fill:rgb(212,184,74);"/>
            </g>
            <g transform="matrix(0.199424,0,0,0.900637,285.284,1200.78)">
                <path d="M844.439,1061.99L844.439,1098.1C844.439,1108.06 807.907,1116.15 762.91,1116.15L398.813,1116.15C353.816,1116.15 317.284,1108.06 317.284,1098.1L317.284,1061.99C317.284,1052.03 353.816,1043.94 398.813,1043.94L762.91,1043.94C807.907,1043.94 844.439,1052.03 844.439,1061.99Z" style="fill:rgb(212,184,74);"/>
                <path d="M844.439,1061.99L844.439,1098.1C844.439,1108.06 807.907,1116.15 762.91,1116.15L398.813,1116.15C353.816,1116.15 317.284,1108.06 317.284,1098.1L317.284,1061.99C317.284,1052.03 353.816,1043.94 398.813,1043.94L762.91,1043.94C807.907,1043.94 844.439,1052.03 844.439,1061.99ZM455.795,1074.61L455.795,1085.48L705.928,1085.48L705.928,1074.61L455.795,1074.61Z" style="fill:rgb(212,184,74);"/>
            </g>
            <g transform="matrix(0.805734,0,0,0.900637,161.153,875.263)">
                <path d="M844.439,1061.99L844.439,1098.1C844.439,1108.06 835.397,1116.15 824.26,1116.15L337.463,1116.15C326.326,1116.15 317.284,1108.06 317.284,1098.1L317.284,1061.99C317.284,1052.03 326.326,1043.94 337.463,1043.94L824.26,1043.94C835.397,1043.94 844.439,1052.03 844.439,1061.99Z" style="fill:rgb(82,199,126);"/>
                <path d="M844.439,1061.99L844.439,1098.1C844.439,1108.06 835.397,1116.15 824.26,1116.15L337.463,1116.15C326.326,1116.15 317.284,1108.06 317.284,1098.1L317.284,1061.99C317.284,1052.03 326.326,1043.94 337.463,1043.94L824.26,1043.94C835.397,1043.94 844.439,1052.03 844.439,1061.99ZM351.567,1074.61L351.567,1085.48L810.157,1085.48L810.157,1074.61L351.567,1074.61Z" style="fill:rgb(82,199,126);"/>
            </g>
            <g transform="matrix(0.445418,0,0,0.900637,328.847,983.913)">
                <path d="M844.439,1061.99L844.439,1098.1C844.439,1108.06 828.083,1116.15 807.936,1116.15L353.787,1116.15C333.641,1116.15 317.284,1108.06 317.284,1098.1L317.284,1061.99C317.284,1052.03 333.641,1043.94 353.787,1043.94L807.936,1043.94C828.083,1043.94 844.439,1052.03 844.439,1061.99Z" style="fill:rgb(90,148,212);"/>
                <path d="M844.439,1061.99L844.439,1098.1C844.439,1108.06 828.083,1116.15 807.936,1116.15L353.787,1116.15C333.641,1116.15 317.284,1108.06 317.284,1098.1L317.284,1061.99C317.284,1052.03 333.641,1043.94 353.787,1043.94L807.936,1043.94C828.083,1043.94 844.439,1052.03 844.439,1061.99ZM379.299,1074.61L379.299,1085.48L782.425,1085.48L782.425,1074.61L379.299,1074.61Z" style="fill:rgb(90,148,212);"/>
            </g>
            <g transform="matrix(0.705347,0,0,0.900637,193.004,1092.21)">
                <path d="M844.439,1061.99L844.439,1098.1C844.439,1108.06 834.11,1116.15 821.388,1116.15L340.335,1116.15C327.613,1116.15 317.284,1108.06 317.284,1098.1L317.284,1061.99C317.284,1052.03 327.613,1043.94 340.335,1043.94L821.388,1043.94C834.11,1043.94 844.439,1052.03 844.439,1061.99Z" style="fill:rgb(82,199,126);"/>
                <path d="M844.439,1061.99L844.439,1098.1C844.439,1108.06 834.11,1116.15 821.388,1116.15L340.335,1116.15C327.613,1116.15 317.284,1108.06 317.284,1098.1L317.284,1061.99C317.284,1052.03 327.613,1043.94 340.335,1043.94L821.388,1043.94C834.11,1043.94 844.439,1052.03 844.439,1061.99ZM356.446,1074.61L356.446,1085.48L805.278,1085.48L805.278,1074.61L356.446,1074.61Z" style="fill:rgb(82,199,126);"/>
            </g>
        </g>
    </g>
</svg>
